<svg width="189" height="58" viewBox="0 0 189 58" fill="none" xmlns="http://www.w3.org/2000/svg">
<rect width="189" height="58" rx="4" fill="url(#paint0_linear_2212_3266)"/>
<path d="M28.8594 30.834H31.0566C30.9863 31.6719 30.752 32.4189 30.3535 33.0752C29.9551 33.7256 29.3955 34.2383 28.6748 34.6133C27.9541 34.9883 27.0781 35.1758 26.0469 35.1758C25.2559 35.1758 24.5439 35.0352 23.9111 34.7539C23.2783 34.4668 22.7363 34.0625 22.2852 33.541C21.834 33.0137 21.4883 32.3779 21.248 31.6338C21.0137 30.8896 20.8965 30.0576 20.8965 29.1377V28.0742C20.8965 27.1543 21.0166 26.3223 21.2568 25.5781C21.5029 24.834 21.8545 24.1982 22.3115 23.6709C22.7686 23.1377 23.3164 22.7305 23.9551 22.4492C24.5996 22.168 25.3232 22.0273 26.126 22.0273C27.1455 22.0273 28.0068 22.2148 28.71 22.5898C29.4131 22.9648 29.958 23.4834 30.3447 24.1455C30.7373 24.8076 30.9775 25.5664 31.0654 26.4219H28.8682C28.8096 25.8711 28.6807 25.3994 28.4814 25.0068C28.2881 24.6143 28.001 24.3154 27.6201 24.1104C27.2393 23.8994 26.7412 23.7939 26.126 23.7939C25.6221 23.7939 25.1826 23.8877 24.8076 24.0752C24.4326 24.2627 24.1191 24.5381 23.8672 24.9014C23.6152 25.2646 23.4248 25.7129 23.2959 26.2461C23.1729 26.7734 23.1113 27.377 23.1113 28.0566V29.1377C23.1113 29.7822 23.167 30.3682 23.2783 30.8955C23.3955 31.417 23.5713 31.8652 23.8057 32.2402C24.0459 32.6152 24.3506 32.9053 24.7197 33.1104C25.0889 33.3154 25.5312 33.418 26.0469 33.418C26.6738 33.418 27.1807 33.3184 27.5674 33.1191C27.96 32.9199 28.2559 32.6299 28.4551 32.249C28.6602 31.8623 28.7949 31.3906 28.8594 30.834ZM34.9766 27.3008V35H32.8584V25.4902H34.8799L34.9766 27.3008ZM37.8857 25.4287L37.8682 27.3975C37.7393 27.374 37.5986 27.3564 37.4463 27.3447C37.2998 27.333 37.1533 27.3271 37.0068 27.3271C36.6436 27.3271 36.3242 27.3799 36.0488 27.4854C35.7734 27.585 35.542 27.7314 35.3545 27.9248C35.1729 28.1123 35.0322 28.3408 34.9326 28.6104C34.833 28.8799 34.7744 29.1816 34.7568 29.5156L34.2734 29.5508C34.2734 28.9531 34.332 28.3994 34.4492 27.8896C34.5664 27.3799 34.7422 26.9316 34.9766 26.5449C35.2168 26.1582 35.5156 25.8564 35.873 25.6396C36.2363 25.4229 36.6553 25.3145 37.1299 25.3145C37.2588 25.3145 37.3965 25.3262 37.543 25.3496C37.6953 25.373 37.8096 25.3994 37.8857 25.4287ZM43.2295 35.1758C42.5264 35.1758 41.8906 35.0615 41.3223 34.833C40.7598 34.5986 40.2793 34.2734 39.8809 33.8574C39.4883 33.4414 39.1865 32.9521 38.9756 32.3896C38.7646 31.8271 38.6592 31.2207 38.6592 30.5703V30.2188C38.6592 29.4746 38.7676 28.8008 38.9844 28.1973C39.2012 27.5938 39.5029 27.0781 39.8896 26.6504C40.2764 26.2168 40.7334 25.8857 41.2607 25.6572C41.7881 25.4287 42.3594 25.3145 42.9746 25.3145C43.6543 25.3145 44.249 25.4287 44.7588 25.6572C45.2686 25.8857 45.6904 26.208 46.0244 26.624C46.3643 27.0342 46.6162 27.5234 46.7803 28.0918C46.9502 28.6602 47.0352 29.2871 47.0352 29.9727V30.8779H39.6875V29.3574H44.9434V29.1904C44.9316 28.8096 44.8555 28.4521 44.7148 28.1182C44.5801 27.7842 44.3721 27.5146 44.0908 27.3096C43.8096 27.1045 43.4346 27.002 42.9658 27.002C42.6143 27.002 42.3008 27.0781 42.0254 27.2305C41.7559 27.377 41.5303 27.5908 41.3486 27.8721C41.167 28.1533 41.0264 28.4932 40.9268 28.8916C40.833 29.2842 40.7861 29.7266 40.7861 30.2188V30.5703C40.7861 30.9863 40.8418 31.373 40.9531 31.7305C41.0703 32.082 41.2402 32.3896 41.4629 32.6533C41.6855 32.917 41.9551 33.125 42.2715 33.2773C42.5879 33.4238 42.9482 33.4971 43.3525 33.4971C43.8623 33.4971 44.3164 33.3945 44.7148 33.1895C45.1133 32.9844 45.459 32.6943 45.752 32.3193L46.8682 33.4004C46.6631 33.6992 46.3965 33.9863 46.0684 34.2617C45.7402 34.5312 45.3389 34.751 44.8643 34.9209C44.3955 35.0908 43.8506 35.1758 43.2295 35.1758ZM54.0488 33.0928V28.5576C54.0488 28.2178 53.9873 27.9248 53.8643 27.6787C53.7412 27.4326 53.5537 27.2422 53.3018 27.1074C53.0557 26.9727 52.7451 26.9053 52.3701 26.9053C52.0244 26.9053 51.7256 26.9639 51.4736 27.0811C51.2217 27.1982 51.0254 27.3564 50.8848 27.5557C50.7441 27.7549 50.6738 27.9805 50.6738 28.2324H48.5645C48.5645 27.8574 48.6553 27.4941 48.8369 27.1426C49.0186 26.791 49.2822 26.4775 49.6279 26.2021C49.9736 25.9268 50.3867 25.71 50.8672 25.5518C51.3477 25.3936 51.8867 25.3145 52.4844 25.3145C53.1992 25.3145 53.832 25.4346 54.3828 25.6748C54.9395 25.915 55.376 26.2783 55.6924 26.7646C56.0146 27.2451 56.1758 27.8486 56.1758 28.5752V32.8027C56.1758 33.2363 56.2051 33.626 56.2637 33.9717C56.3281 34.3115 56.4189 34.6074 56.5361 34.8594V35H54.3652C54.2656 34.7715 54.1865 34.4814 54.1279 34.1299C54.0752 33.7725 54.0488 33.4268 54.0488 33.0928ZM54.3564 29.2168L54.374 30.5264H52.8535C52.4609 30.5264 52.1152 30.5645 51.8164 30.6406C51.5176 30.7109 51.2686 30.8164 51.0693 30.957C50.8701 31.0977 50.7207 31.2676 50.6211 31.4668C50.5215 31.666 50.4717 31.8916 50.4717 32.1436C50.4717 32.3955 50.5303 32.627 50.6475 32.8379C50.7646 33.043 50.9346 33.2041 51.1572 33.3213C51.3857 33.4385 51.6611 33.4971 51.9834 33.4971C52.417 33.4971 52.7949 33.4092 53.1172 33.2334C53.4453 33.0518 53.7031 32.832 53.8906 32.5742C54.0781 32.3105 54.1777 32.0615 54.1895 31.8271L54.875 32.7676C54.8047 33.0078 54.6846 33.2656 54.5146 33.541C54.3447 33.8164 54.1221 34.0801 53.8467 34.332C53.5771 34.5781 53.252 34.7803 52.8711 34.9385C52.4961 35.0967 52.0625 35.1758 51.5703 35.1758C50.9492 35.1758 50.3955 35.0527 49.9092 34.8066C49.4229 34.5547 49.042 34.2178 48.7666 33.7959C48.4912 33.3682 48.3535 32.8848 48.3535 32.3457C48.3535 31.8418 48.4473 31.3965 48.6348 31.0098C48.8281 30.6172 49.1094 30.2891 49.4785 30.0254C49.8535 29.7617 50.3105 29.5625 50.8496 29.4277C51.3887 29.2871 52.0039 29.2168 52.6953 29.2168H54.3564ZM62.75 25.4902V27.0371H57.3887V25.4902H62.75ZM58.9355 23.1611H61.0537V32.3721C61.0537 32.665 61.0947 32.8906 61.1768 33.0488C61.2646 33.2012 61.3848 33.3037 61.5371 33.3564C61.6895 33.4092 61.8682 33.4355 62.0732 33.4355C62.2197 33.4355 62.3604 33.4268 62.4951 33.4092C62.6299 33.3916 62.7383 33.374 62.8203 33.3564L62.8291 34.9736C62.6533 35.0264 62.4482 35.0732 62.2139 35.1143C61.9854 35.1553 61.7217 35.1758 61.4229 35.1758C60.9365 35.1758 60.5059 35.0908 60.1309 34.9209C59.7559 34.7451 59.4629 34.4609 59.252 34.0684C59.041 33.6758 58.9355 33.1543 58.9355 32.5039V23.1611ZM68.5771 35.1758C67.874 35.1758 67.2383 35.0615 66.6699 34.833C66.1074 34.5986 65.627 34.2734 65.2285 33.8574C64.8359 33.4414 64.5342 32.9521 64.3232 32.3896C64.1123 31.8271 64.0068 31.2207 64.0068 30.5703V30.2188C64.0068 29.4746 64.1152 28.8008 64.332 28.1973C64.5488 27.5938 64.8506 27.0781 65.2373 26.6504C65.624 26.2168 66.0811 25.8857 66.6084 25.6572C67.1357 25.4287 67.707 25.3145 68.3223 25.3145C69.002 25.3145 69.5967 25.4287 70.1064 25.6572C70.6162 25.8857 71.0381 26.208 71.3721 26.624C71.7119 27.0342 71.9639 27.5234 72.1279 28.0918C72.2979 28.6602 72.3828 29.2871 72.3828 29.9727V30.8779H65.0352V29.3574H70.291V29.1904C70.2793 28.8096 70.2031 28.4521 70.0625 28.1182C69.9277 27.7842 69.7197 27.5146 69.4385 27.3096C69.1572 27.1045 68.7822 27.002 68.3135 27.002C67.9619 27.002 67.6484 27.0781 67.373 27.2305C67.1035 27.377 66.8779 27.5908 66.6963 27.8721C66.5146 28.1533 66.374 28.4932 66.2744 28.8916C66.1807 29.2842 66.1338 29.7266 66.1338 30.2188V30.5703C66.1338 30.9863 66.1895 31.373 66.3008 31.7305C66.418 32.082 66.5879 32.3896 66.8105 32.6533C67.0332 32.917 67.3027 33.125 67.6191 33.2773C67.9355 33.4238 68.2959 33.4971 68.7002 33.4971C69.21 33.4971 69.6641 33.3945 70.0625 33.1895C70.4609 32.9844 70.8066 32.6943 71.0996 32.3193L72.2158 33.4004C72.0107 33.6992 71.7441 33.9863 71.416 34.2617C71.0879 34.5312 70.6865 34.751 70.2119 34.9209C69.7432 35.0908 69.1982 35.1758 68.5771 35.1758ZM83.8789 33.0928V28.5576C83.8789 28.2178 83.8174 27.9248 83.6943 27.6787C83.5713 27.4326 83.3838 27.2422 83.1318 27.1074C82.8857 26.9727 82.5752 26.9053 82.2002 26.9053C81.8545 26.9053 81.5557 26.9639 81.3037 27.0811C81.0518 27.1982 80.8555 27.3564 80.7148 27.5557C80.5742 27.7549 80.5039 27.9805 80.5039 28.2324H78.3945C78.3945 27.8574 78.4854 27.4941 78.667 27.1426C78.8486 26.791 79.1123 26.4775 79.458 26.2021C79.8037 25.9268 80.2168 25.71 80.6973 25.5518C81.1777 25.3936 81.7168 25.3145 82.3145 25.3145C83.0293 25.3145 83.6621 25.4346 84.2129 25.6748C84.7695 25.915 85.2061 26.2783 85.5225 26.7646C85.8447 27.2451 86.0059 27.8486 86.0059 28.5752V32.8027C86.0059 33.2363 86.0352 33.626 86.0938 33.9717C86.1582 34.3115 86.249 34.6074 86.3662 34.8594V35H84.1953C84.0957 34.7715 84.0166 34.4814 83.958 34.1299C83.9053 33.7725 83.8789 33.4268 83.8789 33.0928ZM84.1865 29.2168L84.2041 30.5264H82.6836C82.291 30.5264 81.9453 30.5645 81.6465 30.6406C81.3477 30.7109 81.0986 30.8164 80.8994 30.957C80.7002 31.0977 80.5508 31.2676 80.4512 31.4668C80.3516 31.666 80.3018 31.8916 80.3018 32.1436C80.3018 32.3955 80.3604 32.627 80.4775 32.8379C80.5947 33.043 80.7646 33.2041 80.9873 33.3213C81.2158 33.4385 81.4912 33.4971 81.8135 33.4971C82.2471 33.4971 82.625 33.4092 82.9473 33.2334C83.2754 33.0518 83.5332 32.832 83.7207 32.5742C83.9082 32.3105 84.0078 32.0615 84.0195 31.8271L84.7051 32.7676C84.6348 33.0078 84.5146 33.2656 84.3447 33.541C84.1748 33.8164 83.9521 34.0801 83.6768 34.332C83.4072 34.5781 83.082 34.7803 82.7012 34.9385C82.3262 35.0967 81.8926 35.1758 81.4004 35.1758C80.7793 35.1758 80.2256 35.0527 79.7393 34.8066C79.2529 34.5547 78.8721 34.2178 78.5967 33.7959C78.3213 33.3682 78.1836 32.8848 78.1836 32.3457C78.1836 31.8418 78.2773 31.3965 78.4648 31.0098C78.6582 30.6172 78.9395 30.2891 79.3086 30.0254C79.6836 29.7617 80.1406 29.5625 80.6797 29.4277C81.2188 29.2871 81.834 29.2168 82.5254 29.2168H84.1865ZM90.3213 27.5205V35H88.2031V25.4902H90.1982L90.3213 27.5205ZM89.9434 29.8936L89.2578 29.8848C89.2637 29.2109 89.3574 28.5928 89.5391 28.0303C89.7266 27.4678 89.9844 26.9844 90.3125 26.5801C90.6465 26.1758 91.0449 25.8652 91.5078 25.6484C91.9707 25.4258 92.4863 25.3145 93.0547 25.3145C93.5117 25.3145 93.9248 25.3789 94.2939 25.5078C94.6689 25.6309 94.9883 25.833 95.252 26.1143C95.5215 26.3955 95.7266 26.7617 95.8672 27.2129C96.0078 27.6582 96.0781 28.2061 96.0781 28.8564V35H93.9512V28.8477C93.9512 28.3906 93.8838 28.0303 93.749 27.7666C93.6201 27.4971 93.4297 27.3066 93.1777 27.1953C92.9316 27.0781 92.624 27.0195 92.2549 27.0195C91.8916 27.0195 91.5664 27.0957 91.2793 27.248C90.9922 27.4004 90.749 27.6084 90.5498 27.8721C90.3564 28.1357 90.207 28.4404 90.1016 28.7861C89.9961 29.1318 89.9434 29.501 89.9434 29.8936ZM107.917 23.9082L104.094 35H101.782L106.599 22.2031H108.075L107.917 23.9082ZM111.116 35L107.284 23.9082L107.117 22.2031H108.603L113.437 35H111.116ZM110.932 30.2539V32.0029H103.971V30.2539H110.932ZM118.543 33.4883C118.889 33.4883 119.199 33.4209 119.475 33.2861C119.756 33.1455 119.981 32.9521 120.151 32.7061C120.327 32.46 120.424 32.1758 120.441 31.8535H122.437C122.425 32.4688 122.243 33.0283 121.892 33.5322C121.54 34.0361 121.074 34.4375 120.494 34.7363C119.914 35.0293 119.272 35.1758 118.569 35.1758C117.843 35.1758 117.21 35.0527 116.671 34.8066C116.132 34.5547 115.684 34.209 115.326 33.7695C114.969 33.3301 114.699 32.8232 114.518 32.249C114.342 31.6748 114.254 31.0596 114.254 30.4033V30.0957C114.254 29.4395 114.342 28.8242 114.518 28.25C114.699 27.6699 114.969 27.1602 115.326 26.7207C115.684 26.2812 116.132 25.9385 116.671 25.6924C117.21 25.4404 117.84 25.3145 118.561 25.3145C119.322 25.3145 119.99 25.4668 120.564 25.7715C121.139 26.0703 121.59 26.4893 121.918 27.0283C122.252 27.5615 122.425 28.1826 122.437 28.8916H120.441C120.424 28.54 120.336 28.2236 120.178 27.9424C120.025 27.6553 119.809 27.4268 119.527 27.2568C119.252 27.0869 118.921 27.002 118.534 27.002C118.106 27.002 117.752 27.0898 117.471 27.2656C117.189 27.4355 116.97 27.6699 116.812 27.9688C116.653 28.2617 116.539 28.5928 116.469 28.9619C116.404 29.3252 116.372 29.7031 116.372 30.0957V30.4033C116.372 30.7959 116.404 31.1768 116.469 31.5459C116.533 31.915 116.645 32.2461 116.803 32.5391C116.967 32.8262 117.189 33.0576 117.471 33.2334C117.752 33.4033 118.109 33.4883 118.543 33.4883ZM127.947 33.4883C128.293 33.4883 128.604 33.4209 128.879 33.2861C129.16 33.1455 129.386 32.9521 129.556 32.7061C129.731 32.46 129.828 32.1758 129.846 31.8535H131.841C131.829 32.4688 131.647 33.0283 131.296 33.5322C130.944 34.0361 130.479 34.4375 129.898 34.7363C129.318 35.0293 128.677 35.1758 127.974 35.1758C127.247 35.1758 126.614 35.0527 126.075 34.8066C125.536 34.5547 125.088 34.209 124.73 33.7695C124.373 33.3301 124.104 32.8232 123.922 32.249C123.746 31.6748 123.658 31.0596 123.658 30.4033V30.0957C123.658 29.4395 123.746 28.8242 123.922 28.25C124.104 27.6699 124.373 27.1602 124.73 26.7207C125.088 26.2812 125.536 25.9385 126.075 25.6924C126.614 25.4404 127.244 25.3145 127.965 25.3145C128.727 25.3145 129.395 25.4668 129.969 25.7715C130.543 26.0703 130.994 26.4893 131.322 27.0283C131.656 27.5615 131.829 28.1826 131.841 28.8916H129.846C129.828 28.54 129.74 28.2236 129.582 27.9424C129.43 27.6553 129.213 27.4268 128.932 27.2568C128.656 27.0869 128.325 27.002 127.938 27.002C127.511 27.002 127.156 27.0898 126.875 27.2656C126.594 27.4355 126.374 27.6699 126.216 27.9688C126.058 28.2617 125.943 28.5928 125.873 28.9619C125.809 29.3252 125.776 29.7031 125.776 30.0957V30.4033C125.776 30.7959 125.809 31.1768 125.873 31.5459C125.938 31.915 126.049 32.2461 126.207 32.5391C126.371 32.8262 126.594 33.0576 126.875 33.2334C127.156 33.4033 127.514 33.4883 127.947 33.4883ZM133.062 30.3506V30.1484C133.062 29.4629 133.162 28.8271 133.361 28.2412C133.561 27.6494 133.848 27.1367 134.223 26.7031C134.604 26.2637 135.066 25.9238 135.611 25.6836C136.162 25.4375 136.783 25.3145 137.475 25.3145C138.172 25.3145 138.793 25.4375 139.338 25.6836C139.889 25.9238 140.354 26.2637 140.735 26.7031C141.116 27.1367 141.406 27.6494 141.605 28.2412C141.805 28.8271 141.904 29.4629 141.904 30.1484V30.3506C141.904 31.0361 141.805 31.6719 141.605 32.2578C141.406 32.8438 141.116 33.3564 140.735 33.7959C140.354 34.2295 139.892 34.5693 139.347 34.8154C138.802 35.0557 138.184 35.1758 137.492 35.1758C136.795 35.1758 136.171 35.0557 135.62 34.8154C135.075 34.5693 134.612 34.2295 134.231 33.7959C133.851 33.3564 133.561 32.8438 133.361 32.2578C133.162 31.6719 133.062 31.0361 133.062 30.3506ZM135.181 30.1484V30.3506C135.181 30.7783 135.225 31.1826 135.312 31.5635C135.4 31.9443 135.538 32.2783 135.726 32.5654C135.913 32.8525 136.153 33.0781 136.446 33.2422C136.739 33.4062 137.088 33.4883 137.492 33.4883C137.885 33.4883 138.225 33.4062 138.512 33.2422C138.805 33.0781 139.045 32.8525 139.232 32.5654C139.42 32.2783 139.558 31.9443 139.646 31.5635C139.739 31.1826 139.786 30.7783 139.786 30.3506V30.1484C139.786 29.7266 139.739 29.3281 139.646 28.9531C139.558 28.5723 139.417 28.2354 139.224 27.9424C139.036 27.6494 138.796 27.4209 138.503 27.2568C138.216 27.0869 137.873 27.002 137.475 27.002C137.076 27.002 136.73 27.0869 136.438 27.2568C136.15 27.4209 135.913 27.6494 135.726 27.9424C135.538 28.2354 135.4 28.5723 135.312 28.9531C135.225 29.3281 135.181 29.7266 135.181 30.1484ZM149.401 32.7588V25.4902H151.528V35H149.524L149.401 32.7588ZM149.7 30.7812L150.412 30.7637C150.412 31.4023 150.342 31.9912 150.201 32.5303C150.061 33.0635 149.844 33.5293 149.551 33.9277C149.258 34.3203 148.883 34.6279 148.426 34.8506C147.969 35.0674 147.421 35.1758 146.782 35.1758C146.319 35.1758 145.895 35.1084 145.508 34.9736C145.121 34.8389 144.787 34.6309 144.506 34.3496C144.23 34.0684 144.017 33.7021 143.864 33.251C143.712 32.7998 143.636 32.2607 143.636 31.6338V25.4902H145.754V31.6514C145.754 31.9971 145.795 32.2871 145.877 32.5215C145.959 32.75 146.07 32.9346 146.211 33.0752C146.352 33.2158 146.516 33.3154 146.703 33.374C146.891 33.4326 147.09 33.4619 147.301 33.4619C147.904 33.4619 148.379 33.3447 148.725 33.1104C149.076 32.8701 149.325 32.5479 149.472 32.1436C149.624 31.7393 149.7 31.2852 149.7 30.7812ZM155.8 27.5205V35H153.682V25.4902H155.677L155.8 27.5205ZM155.422 29.8936L154.736 29.8848C154.742 29.2109 154.836 28.5928 155.018 28.0303C155.205 27.4678 155.463 26.9844 155.791 26.5801C156.125 26.1758 156.523 25.8652 156.986 25.6484C157.449 25.4258 157.965 25.3145 158.533 25.3145C158.99 25.3145 159.403 25.3789 159.772 25.5078C160.147 25.6309 160.467 25.833 160.73 26.1143C161 26.3955 161.205 26.7617 161.346 27.2129C161.486 27.6582 161.557 28.2061 161.557 28.8564V35H159.43V28.8477C159.43 28.3906 159.362 28.0303 159.228 27.7666C159.099 27.4971 158.908 27.3066 158.656 27.1953C158.41 27.0781 158.103 27.0195 157.733 27.0195C157.37 27.0195 157.045 27.0957 156.758 27.248C156.471 27.4004 156.228 27.6084 156.028 27.8721C155.835 28.1357 155.686 28.4404 155.58 28.7861C155.475 29.1318 155.422 29.501 155.422 29.8936ZM168.078 25.4902V27.0371H162.717V25.4902H168.078ZM164.264 23.1611H166.382V32.3721C166.382 32.665 166.423 32.8906 166.505 33.0488C166.593 33.2012 166.713 33.3037 166.865 33.3564C167.018 33.4092 167.196 33.4355 167.401 33.4355C167.548 33.4355 167.688 33.4268 167.823 33.4092C167.958 33.3916 168.066 33.374 168.148 33.3564L168.157 34.9736C167.981 35.0264 167.776 35.0732 167.542 35.1143C167.313 35.1553 167.05 35.1758 166.751 35.1758C166.265 35.1758 165.834 35.0908 165.459 34.9209C165.084 34.7451 164.791 34.4609 164.58 34.0684C164.369 33.6758 164.264 33.1543 164.264 32.5039V23.1611Z" fill="white"/>
<defs>
<linearGradient id="paint0_linear_2212_3266" x1="0" y1="0" x2="191.106" y2="49.9404" gradientUnits="userSpaceOnUse">
<stop stop-color="#25A1FF"/>
<stop offset="1" stop-color="#0070E4"/>
</linearGradient>
</defs>
</svg>
