<svg width="177" height="58" viewBox="0 0 177 58" fill="none" xmlns="http://www.w3.org/2000/svg">
<rect width="177" height="58" rx="4" fill="url(#paint0_linear_9_4474)"/>
<path d="M44.0332 31.7041C44.0332 31.4404 43.9922 31.2061 43.9102 31.001C43.834 30.7959 43.6963 30.6084 43.4971 30.4385C43.2979 30.2686 43.0166 30.1045 42.6533 29.9463C42.2959 29.7822 41.8389 29.6152 41.2822 29.4453C40.6729 29.2578 40.1104 29.0498 39.5947 28.8213C39.085 28.5869 38.6396 28.3174 38.2588 28.0127C37.8779 27.7021 37.582 27.3477 37.3711 26.9492C37.1602 26.5449 37.0547 26.0791 37.0547 25.5518C37.0547 25.0303 37.1631 24.5557 37.3799 24.1279C37.6025 23.7002 37.916 23.3311 38.3203 23.0205C38.7305 22.7041 39.2139 22.4609 39.7705 22.291C40.3271 22.1152 40.9424 22.0273 41.6162 22.0273C42.5654 22.0273 43.3828 22.2031 44.0684 22.5547C44.7598 22.9062 45.29 23.3779 45.6592 23.9697C46.0342 24.5615 46.2217 25.2148 46.2217 25.9297H44.0332C44.0332 25.5078 43.9424 25.1357 43.7607 24.8135C43.585 24.4854 43.3154 24.2275 42.9521 24.04C42.5947 23.8525 42.1406 23.7588 41.5898 23.7588C41.0684 23.7588 40.6348 23.8379 40.2891 23.9961C39.9434 24.1543 39.6855 24.3682 39.5156 24.6377C39.3457 24.9072 39.2607 25.2119 39.2607 25.5518C39.2607 25.792 39.3164 26.0117 39.4277 26.2109C39.5391 26.4043 39.709 26.5859 39.9375 26.7559C40.166 26.9199 40.4531 27.0752 40.7988 27.2217C41.1445 27.3682 41.5518 27.5088 42.0205 27.6436C42.7295 27.8545 43.3477 28.0889 43.875 28.3467C44.4023 28.5986 44.8418 28.8857 45.1934 29.208C45.5449 29.5303 45.8086 29.8965 45.9844 30.3066C46.1602 30.7109 46.248 31.1709 46.248 31.6865C46.248 32.2256 46.1396 32.7119 45.9229 33.1455C45.7061 33.5732 45.3955 33.9395 44.9912 34.2441C44.5928 34.543 44.1123 34.7744 43.5498 34.9385C42.9932 35.0967 42.3721 35.1758 41.6865 35.1758C41.0713 35.1758 40.4648 35.0938 39.8672 34.9297C39.2754 34.7656 38.7363 34.5166 38.25 34.1826C37.7637 33.8428 37.377 33.4209 37.0898 32.917C36.8027 32.4072 36.6592 31.8125 36.6592 31.1328H38.8652C38.8652 31.5488 38.9355 31.9033 39.0762 32.1963C39.2227 32.4893 39.4248 32.7295 39.6826 32.917C39.9404 33.0986 40.2393 33.2334 40.5791 33.3213C40.9248 33.4092 41.2939 33.4531 41.6865 33.4531C42.2021 33.4531 42.6328 33.3799 42.9785 33.2334C43.3301 33.0869 43.5938 32.8818 43.7695 32.6182C43.9453 32.3545 44.0332 32.0498 44.0332 31.7041ZM52.3477 25.4902V27.0371H46.9863V25.4902H52.3477ZM48.5332 23.1611H50.6514V32.3721C50.6514 32.665 50.6924 32.8906 50.7744 33.0488C50.8623 33.2012 50.9824 33.3037 51.1348 33.3564C51.2871 33.4092 51.4658 33.4355 51.6709 33.4355C51.8174 33.4355 51.958 33.4268 52.0928 33.4092C52.2275 33.3916 52.3359 33.374 52.418 33.3564L52.4268 34.9736C52.251 35.0264 52.0459 35.0732 51.8115 35.1143C51.583 35.1553 51.3193 35.1758 51.0205 35.1758C50.5342 35.1758 50.1035 35.0908 49.7285 34.9209C49.3535 34.7451 49.0605 34.4609 48.8496 34.0684C48.6387 33.6758 48.5332 33.1543 48.5332 32.5039V23.1611ZM59.3438 33.0928V28.5576C59.3438 28.2178 59.2822 27.9248 59.1592 27.6787C59.0361 27.4326 58.8486 27.2422 58.5967 27.1074C58.3506 26.9727 58.04 26.9053 57.665 26.9053C57.3193 26.9053 57.0205 26.9639 56.7686 27.0811C56.5166 27.1982 56.3203 27.3564 56.1797 27.5557C56.0391 27.7549 55.9688 27.9805 55.9688 28.2324H53.8594C53.8594 27.8574 53.9502 27.4941 54.1318 27.1426C54.3135 26.791 54.5771 26.4775 54.9229 26.2021C55.2686 25.9268 55.6816 25.71 56.1621 25.5518C56.6426 25.3936 57.1816 25.3145 57.7793 25.3145C58.4941 25.3145 59.127 25.4346 59.6777 25.6748C60.2344 25.915 60.6709 26.2783 60.9873 26.7646C61.3096 27.2451 61.4707 27.8486 61.4707 28.5752V32.8027C61.4707 33.2363 61.5 33.626 61.5586 33.9717C61.623 34.3115 61.7139 34.6074 61.8311 34.8594V35H59.6602C59.5605 34.7715 59.4814 34.4814 59.4229 34.1299C59.3701 33.7725 59.3438 33.4268 59.3438 33.0928ZM59.6514 29.2168L59.6689 30.5264H58.1484C57.7559 30.5264 57.4102 30.5645 57.1113 30.6406C56.8125 30.7109 56.5635 30.8164 56.3643 30.957C56.165 31.0977 56.0156 31.2676 55.916 31.4668C55.8164 31.666 55.7666 31.8916 55.7666 32.1436C55.7666 32.3955 55.8252 32.627 55.9424 32.8379C56.0596 33.043 56.2295 33.2041 56.4521 33.3213C56.6807 33.4385 56.9561 33.4971 57.2783 33.4971C57.7119 33.4971 58.0898 33.4092 58.4121 33.2334C58.7402 33.0518 58.998 32.832 59.1855 32.5742C59.373 32.3105 59.4727 32.0615 59.4844 31.8271L60.1699 32.7676C60.0996 33.0078 59.9795 33.2656 59.8096 33.541C59.6396 33.8164 59.417 34.0801 59.1416 34.332C58.8721 34.5781 58.5469 34.7803 58.166 34.9385C57.791 35.0967 57.3574 35.1758 56.8652 35.1758C56.2441 35.1758 55.6904 35.0527 55.2041 34.8066C54.7178 34.5547 54.3369 34.2178 54.0615 33.7959C53.7861 33.3682 53.6484 32.8848 53.6484 32.3457C53.6484 31.8418 53.7422 31.3965 53.9297 31.0098C54.123 30.6172 54.4043 30.2891 54.7734 30.0254C55.1484 29.7617 55.6055 29.5625 56.1445 29.4277C56.6836 29.2871 57.2988 29.2168 57.9902 29.2168H59.6514ZM65.8125 27.3008V35H63.6943V25.4902H65.7158L65.8125 27.3008ZM68.7217 25.4287L68.7041 27.3975C68.5752 27.374 68.4346 27.3564 68.2822 27.3447C68.1357 27.333 67.9893 27.3271 67.8428 27.3271C67.4795 27.3271 67.1602 27.3799 66.8848 27.4854C66.6094 27.585 66.3779 27.7314 66.1904 27.9248C66.0088 28.1123 65.8682 28.3408 65.7686 28.6104C65.6689 28.8799 65.6104 29.1816 65.5928 29.5156L65.1094 29.5508C65.1094 28.9531 65.168 28.3994 65.2852 27.8896C65.4023 27.3799 65.5781 26.9316 65.8125 26.5449C66.0527 26.1582 66.3516 25.8564 66.709 25.6396C67.0723 25.4229 67.4912 25.3145 67.9658 25.3145C68.0947 25.3145 68.2324 25.3262 68.3789 25.3496C68.5312 25.373 68.6455 25.3994 68.7217 25.4287ZM74.8477 25.4902V27.0371H69.4863V25.4902H74.8477ZM71.0332 23.1611H73.1514V32.3721C73.1514 32.665 73.1924 32.8906 73.2744 33.0488C73.3623 33.2012 73.4824 33.3037 73.6348 33.3564C73.7871 33.4092 73.9658 33.4355 74.1709 33.4355C74.3174 33.4355 74.458 33.4268 74.5928 33.4092C74.7275 33.3916 74.8359 33.374 74.918 33.3564L74.9268 34.9736C74.751 35.0264 74.5459 35.0732 74.3115 35.1143C74.083 35.1553 73.8193 35.1758 73.5205 35.1758C73.0342 35.1758 72.6035 35.0908 72.2285 34.9209C71.8535 34.7451 71.5605 34.4609 71.3496 34.0684C71.1387 33.6758 71.0332 33.1543 71.0332 32.5039V23.1611ZM86.0186 22.2031V35H83.8301V22.2031H86.0186ZM90.0352 22.2031V23.9609H79.8486V22.2031H90.0352ZM93.0059 27.3008V35H90.8877V25.4902H92.9092L93.0059 27.3008ZM95.915 25.4287L95.8975 27.3975C95.7686 27.374 95.6279 27.3564 95.4756 27.3447C95.3291 27.333 95.1826 27.3271 95.0361 27.3271C94.6729 27.3271 94.3535 27.3799 94.0781 27.4854C93.8027 27.585 93.5713 27.7314 93.3838 27.9248C93.2021 28.1123 93.0615 28.3408 92.9619 28.6104C92.8623 28.8799 92.8037 29.1816 92.7861 29.5156L92.3027 29.5508C92.3027 28.9531 92.3613 28.3994 92.4785 27.8896C92.5957 27.3799 92.7715 26.9316 93.0059 26.5449C93.2461 26.1582 93.5449 25.8564 93.9023 25.6396C94.2656 25.4229 94.6846 25.3145 95.1592 25.3145C95.2881 25.3145 95.4258 25.3262 95.5723 25.3496C95.7246 25.373 95.8389 25.3994 95.915 25.4287ZM102.287 33.0928V28.5576C102.287 28.2178 102.226 27.9248 102.103 27.6787C101.979 27.4326 101.792 27.2422 101.54 27.1074C101.294 26.9727 100.983 26.9053 100.608 26.9053C100.263 26.9053 99.9639 26.9639 99.7119 27.0811C99.46 27.1982 99.2637 27.3564 99.123 27.5557C98.9824 27.7549 98.9121 27.9805 98.9121 28.2324H96.8027C96.8027 27.8574 96.8936 27.4941 97.0752 27.1426C97.2568 26.791 97.5205 26.4775 97.8662 26.2021C98.2119 25.9268 98.625 25.71 99.1055 25.5518C99.5859 25.3936 100.125 25.3145 100.723 25.3145C101.438 25.3145 102.07 25.4346 102.621 25.6748C103.178 25.915 103.614 26.2783 103.931 26.7646C104.253 27.2451 104.414 27.8486 104.414 28.5752V32.8027C104.414 33.2363 104.443 33.626 104.502 33.9717C104.566 34.3115 104.657 34.6074 104.774 34.8594V35H102.604C102.504 34.7715 102.425 34.4814 102.366 34.1299C102.313 33.7725 102.287 33.4268 102.287 33.0928ZM102.595 29.2168L102.612 30.5264H101.092C100.699 30.5264 100.354 30.5645 100.055 30.6406C99.7559 30.7109 99.5068 30.8164 99.3076 30.957C99.1084 31.0977 98.959 31.2676 98.8594 31.4668C98.7598 31.666 98.71 31.8916 98.71 32.1436C98.71 32.3955 98.7686 32.627 98.8857 32.8379C99.0029 33.043 99.1729 33.2041 99.3955 33.3213C99.624 33.4385 99.8994 33.4971 100.222 33.4971C100.655 33.4971 101.033 33.4092 101.355 33.2334C101.684 33.0518 101.941 32.832 102.129 32.5742C102.316 32.3105 102.416 32.0615 102.428 31.8271L103.113 32.7676C103.043 33.0078 102.923 33.2656 102.753 33.541C102.583 33.8164 102.36 34.0801 102.085 34.332C101.815 34.5781 101.49 34.7803 101.109 34.9385C100.734 35.0967 100.301 35.1758 99.8086 35.1758C99.1875 35.1758 98.6338 35.0527 98.1475 34.8066C97.6611 34.5547 97.2803 34.2178 97.0049 33.7959C96.7295 33.3682 96.5918 32.8848 96.5918 32.3457C96.5918 31.8418 96.6855 31.3965 96.873 31.0098C97.0664 30.6172 97.3477 30.2891 97.7168 30.0254C98.0918 29.7617 98.5488 29.5625 99.0879 29.4277C99.627 29.2871 100.242 29.2168 100.934 29.2168H102.595ZM112.43 33.0312V21.5H114.557V35H112.632L112.43 33.0312ZM106.242 30.3506V30.166C106.242 29.4453 106.327 28.7891 106.497 28.1973C106.667 27.5996 106.913 27.0869 107.235 26.6592C107.558 26.2256 107.95 25.8945 108.413 25.666C108.876 25.4316 109.397 25.3145 109.978 25.3145C110.552 25.3145 111.056 25.4258 111.489 25.6484C111.923 25.8711 112.292 26.1904 112.597 26.6064C112.901 27.0166 113.145 27.5088 113.326 28.083C113.508 28.6514 113.637 29.2842 113.713 29.9814V30.5703C113.637 31.25 113.508 31.8711 113.326 32.4336C113.145 32.9961 112.901 33.4824 112.597 33.8926C112.292 34.3027 111.92 34.6191 111.48 34.8418C111.047 35.0645 110.54 35.1758 109.96 35.1758C109.386 35.1758 108.867 35.0557 108.404 34.8154C107.947 34.5752 107.558 34.2383 107.235 33.8047C106.913 33.3711 106.667 32.8613 106.497 32.2754C106.327 31.6836 106.242 31.042 106.242 30.3506ZM108.36 30.166V30.3506C108.36 30.7842 108.398 31.1885 108.475 31.5635C108.557 31.9385 108.683 32.2695 108.853 32.5566C109.022 32.8379 109.242 33.0605 109.512 33.2246C109.787 33.3828 110.115 33.4619 110.496 33.4619C110.977 33.4619 111.372 33.3564 111.683 33.1455C111.993 32.9346 112.236 32.6504 112.412 32.293C112.594 31.9297 112.717 31.5254 112.781 31.0801V29.4893C112.746 29.1436 112.673 28.8213 112.562 28.5225C112.456 28.2236 112.312 27.9629 112.131 27.7402C111.949 27.5117 111.724 27.3359 111.454 27.2129C111.19 27.084 110.877 27.0195 110.514 27.0195C110.127 27.0195 109.799 27.1016 109.529 27.2656C109.26 27.4297 109.037 27.6553 108.861 27.9424C108.691 28.2295 108.565 28.5635 108.483 28.9443C108.401 29.3252 108.36 29.7324 108.36 30.166ZM119.039 25.4902V35H116.912V25.4902H119.039ZM116.771 22.9941C116.771 22.6719 116.877 22.4053 117.088 22.1943C117.305 21.9775 117.604 21.8691 117.984 21.8691C118.359 21.8691 118.655 21.9775 118.872 22.1943C119.089 22.4053 119.197 22.6719 119.197 22.9941C119.197 23.3105 119.089 23.5742 118.872 23.7852C118.655 23.9961 118.359 24.1016 117.984 24.1016C117.604 24.1016 117.305 23.9961 117.088 23.7852C116.877 23.5742 116.771 23.3105 116.771 22.9941ZM123.46 27.5205V35H121.342V25.4902H123.337L123.46 27.5205ZM123.082 29.8936L122.396 29.8848C122.402 29.2109 122.496 28.5928 122.678 28.0303C122.865 27.4678 123.123 26.9844 123.451 26.5801C123.785 26.1758 124.184 25.8652 124.646 25.6484C125.109 25.4258 125.625 25.3145 126.193 25.3145C126.65 25.3145 127.063 25.3789 127.433 25.5078C127.808 25.6309 128.127 25.833 128.391 26.1143C128.66 26.3955 128.865 26.7617 129.006 27.2129C129.146 27.6582 129.217 28.2061 129.217 28.8564V35H127.09V28.8477C127.09 28.3906 127.022 28.0303 126.888 27.7666C126.759 27.4971 126.568 27.3066 126.316 27.1953C126.07 27.0781 125.763 27.0195 125.394 27.0195C125.03 27.0195 124.705 27.0957 124.418 27.248C124.131 27.4004 123.888 27.6084 123.688 27.8721C123.495 28.1357 123.346 28.4404 123.24 28.7861C123.135 29.1318 123.082 29.501 123.082 29.8936ZM137.47 25.4902H139.395V34.7363C139.395 35.5918 139.213 36.3184 138.85 36.916C138.486 37.5137 137.979 37.9678 137.329 38.2783C136.679 38.5947 135.926 38.7529 135.07 38.7529C134.707 38.7529 134.303 38.7002 133.857 38.5947C133.418 38.4893 132.99 38.3193 132.574 38.085C132.164 37.8564 131.821 37.5547 131.546 37.1797L132.539 35.9316C132.879 36.3359 133.254 36.6318 133.664 36.8193C134.074 37.0068 134.505 37.1006 134.956 37.1006C135.442 37.1006 135.855 37.0098 136.195 36.8281C136.541 36.6523 136.808 36.3916 136.995 36.0459C137.183 35.7002 137.276 35.2783 137.276 34.7803V27.6436L137.47 25.4902ZM131.01 30.3506V30.166C131.01 29.4453 131.098 28.7891 131.273 28.1973C131.449 27.5996 131.701 27.0869 132.029 26.6592C132.357 26.2256 132.756 25.8945 133.225 25.666C133.693 25.4316 134.224 25.3145 134.815 25.3145C135.431 25.3145 135.955 25.4258 136.389 25.6484C136.828 25.8711 137.194 26.1904 137.487 26.6064C137.78 27.0166 138.009 27.5088 138.173 28.083C138.343 28.6514 138.469 29.2842 138.551 29.9814V30.5703C138.475 31.25 138.346 31.8711 138.164 32.4336C137.982 32.9961 137.742 33.4824 137.443 33.8926C137.145 34.3027 136.775 34.6191 136.336 34.8418C135.902 35.0645 135.39 35.1758 134.798 35.1758C134.218 35.1758 133.693 35.0557 133.225 34.8154C132.762 34.5752 132.363 34.2383 132.029 33.8047C131.701 33.3711 131.449 32.8613 131.273 32.2754C131.098 31.6836 131.01 31.042 131.01 30.3506ZM133.128 30.166V30.3506C133.128 30.7842 133.169 31.1885 133.251 31.5635C133.339 31.9385 133.471 32.2695 133.646 32.5566C133.828 32.8379 134.057 33.0605 134.332 33.2246C134.613 33.3828 134.944 33.4619 135.325 33.4619C135.823 33.4619 136.23 33.3564 136.547 33.1455C136.869 32.9346 137.115 32.6504 137.285 32.293C137.461 31.9297 137.584 31.5254 137.654 31.0801V29.4893C137.619 29.1436 137.546 28.8213 137.435 28.5225C137.329 28.2236 137.186 27.9629 137.004 27.7402C136.822 27.5117 136.594 27.3359 136.318 27.2129C136.043 27.084 135.718 27.0195 135.343 27.0195C134.962 27.0195 134.631 27.1016 134.35 27.2656C134.068 27.4297 133.837 27.6553 133.655 27.9424C133.479 28.2295 133.348 28.5635 133.26 28.9443C133.172 29.3252 133.128 29.7324 133.128 30.166Z" fill="white"/>
<defs>
<linearGradient id="paint0_linear_9_4474" x1="0" y1="0" x2="180.39" y2="44.147" gradientUnits="userSpaceOnUse">
<stop stop-color="#25A1FF"/>
<stop offset="1" stop-color="#0070E4"/>
</linearGradient>
</defs>
</svg>
