<svg width="46" height="40" viewBox="0 0 46 40" fill="none" xmlns="http://www.w3.org/2000/svg">
<path d="M7.80664 29.5H3.55469L3.58203 26.7793H7.80664C9.03711 26.7793 10.0671 26.5104 10.8965 25.9727C11.735 25.4349 12.3639 24.6647 12.7832 23.6621C13.2116 22.6595 13.4258 21.4655 13.4258 20.0801V19C13.4258 17.9245 13.3027 16.972 13.0566 16.1426C12.8197 15.3132 12.4642 14.6159 11.9902 14.0508C11.5254 13.4857 10.9512 13.0573 10.2676 12.7656C9.5931 12.474 8.8138 12.3281 7.92969 12.3281H3.47266V9.59375H7.92969C9.2513 9.59375 10.459 9.81706 11.5527 10.2637C12.6465 10.7012 13.5898 11.3346 14.3828 12.1641C15.1849 12.9935 15.8001 13.987 16.2285 15.1445C16.6569 16.3021 16.8711 17.5964 16.8711 19.0273V20.0801C16.8711 21.5111 16.6569 22.8053 16.2285 23.9629C15.8001 25.1204 15.1849 26.1139 14.3828 26.9434C13.5807 27.7637 12.6237 28.3971 11.5117 28.8438C10.4089 29.2812 9.17383 29.5 7.80664 29.5ZM5.45508 9.59375V29.5H2.02344V9.59375H5.45508Z" fill="white"/>
<path d="M23.1855 29.6758C22.5234 29.6758 21.9229 29.5645 21.3838 29.3418C20.8506 29.1133 20.3906 28.7939 20.0039 28.3838C19.623 27.9736 19.3301 27.4873 19.125 26.9248C18.9199 26.3623 18.8174 25.7471 18.8174 25.0791V24.71C18.8174 23.9365 18.9316 23.248 19.1602 22.6445C19.3887 22.0352 19.6992 21.5195 20.0918 21.0977C20.4844 20.6758 20.9297 20.3564 21.4277 20.1396C21.9258 19.9229 22.4414 19.8145 22.9746 19.8145C23.6543 19.8145 24.2402 19.9316 24.7324 20.166C25.2305 20.4004 25.6377 20.7285 25.9541 21.1504C26.2705 21.5664 26.5049 22.0586 26.6572 22.627C26.8096 23.1895 26.8857 23.8047 26.8857 24.4727V25.2021H19.7842V23.875H25.2598V23.752C25.2363 23.3301 25.1484 22.9199 24.9961 22.5215C24.8496 22.123 24.6152 21.7949 24.293 21.5371C23.9707 21.2793 23.5312 21.1504 22.9746 21.1504C22.6055 21.1504 22.2656 21.2295 21.9551 21.3877C21.6445 21.54 21.3779 21.7686 21.1553 22.0732C20.9326 22.3779 20.7598 22.75 20.6367 23.1895C20.5137 23.6289 20.4521 24.1357 20.4521 24.71V25.0791C20.4521 25.5303 20.5137 25.9551 20.6367 26.3535C20.7656 26.7461 20.9502 27.0918 21.1904 27.3906C21.4365 27.6895 21.7324 27.9238 22.0781 28.0938C22.4297 28.2637 22.8281 28.3486 23.2734 28.3486C23.8477 28.3486 24.334 28.2314 24.7324 27.9971C25.1309 27.7627 25.4795 27.4492 25.7783 27.0566L26.7627 27.8389C26.5576 28.1494 26.2969 28.4453 25.9805 28.7266C25.6641 29.0078 25.2744 29.2363 24.8115 29.4121C24.3545 29.5879 23.8125 29.6758 23.1855 29.6758ZM34.3213 26.9775C34.3213 26.7432 34.2686 26.5264 34.1631 26.3271C34.0635 26.1221 33.8555 25.9375 33.5391 25.7734C33.2285 25.6035 32.7598 25.457 32.1328 25.334C31.6055 25.2227 31.1279 25.0908 30.7002 24.9385C30.2783 24.7861 29.918 24.6016 29.6191 24.3848C29.3262 24.168 29.1006 23.9131 28.9424 23.6201C28.7842 23.3271 28.7051 22.9844 28.7051 22.5918C28.7051 22.2168 28.7871 21.8623 28.9512 21.5283C29.1211 21.1943 29.3584 20.8984 29.6631 20.6406C29.9736 20.3828 30.3457 20.1807 30.7793 20.0342C31.2129 19.8877 31.6963 19.8145 32.2295 19.8145C32.9912 19.8145 33.6416 19.9492 34.1807 20.2188C34.7197 20.4883 35.1328 20.8486 35.4199 21.2998C35.707 21.7451 35.8506 22.2402 35.8506 22.7852H34.2246C34.2246 22.5215 34.1455 22.2666 33.9873 22.0205C33.835 21.7686 33.6094 21.5605 33.3105 21.3965C33.0176 21.2324 32.6572 21.1504 32.2295 21.1504C31.7783 21.1504 31.4121 21.2207 31.1309 21.3613C30.8555 21.4961 30.6533 21.6689 30.5244 21.8799C30.4014 22.0908 30.3398 22.3135 30.3398 22.5479C30.3398 22.7236 30.3691 22.8818 30.4277 23.0225C30.4922 23.1572 30.6035 23.2832 30.7617 23.4004C30.9199 23.5117 31.1426 23.6172 31.4297 23.7168C31.7168 23.8164 32.083 23.916 32.5283 24.0156C33.3076 24.1914 33.9492 24.4023 34.4531 24.6484C34.957 24.8945 35.332 25.1963 35.5781 25.5537C35.8242 25.9111 35.9473 26.3447 35.9473 26.8545C35.9473 27.2705 35.8594 27.6514 35.6836 27.9971C35.5137 28.3428 35.2646 28.6416 34.9365 28.8936C34.6143 29.1396 34.2275 29.333 33.7764 29.4736C33.3311 29.6084 32.8301 29.6758 32.2734 29.6758C31.4355 29.6758 30.7266 29.5264 30.1465 29.2275C29.5664 28.9287 29.127 28.542 28.8281 28.0674C28.5293 27.5928 28.3799 27.0918 28.3799 26.5645H30.0146C30.0381 27.0098 30.167 27.3643 30.4014 27.6279C30.6357 27.8857 30.9229 28.0703 31.2627 28.1816C31.6025 28.2871 31.9395 28.3398 32.2734 28.3398C32.7188 28.3398 33.0908 28.2812 33.3896 28.1641C33.6943 28.0469 33.9258 27.8857 34.084 27.6807C34.2422 27.4756 34.3213 27.2412 34.3213 26.9775ZM39.7178 16V29.5H38.083V16H39.7178ZM45.5273 19.9902L41.3789 24.4287L39.0586 26.8369L38.9268 25.1055L40.5879 23.1191L43.541 19.9902H45.5273ZM44.042 29.5L40.6494 24.9648L41.4932 23.5146L45.958 29.5H44.042Z" fill="white"/>
</svg>
