<svg width="44" height="40" viewBox="0 0 44 40" fill="none" xmlns="http://www.w3.org/2000/svg">
<path d="M13.7812 23.0195H17.1992C17.0898 24.3229 16.7253 25.485 16.1055 26.5059C15.4857 27.5176 14.6152 28.3151 13.4941 28.8984C12.373 29.4818 11.0104 29.7734 9.40625 29.7734C8.17578 29.7734 7.06836 29.5547 6.08398 29.1172C5.09961 28.6706 4.25651 28.0417 3.55469 27.2305C2.85286 26.4102 2.3151 25.4212 1.94141 24.2637C1.57682 23.1061 1.39453 21.8118 1.39453 20.3809V18.7266C1.39453 17.2956 1.58138 16.0013 1.95508 14.8438C2.33789 13.6862 2.88477 12.6973 3.5957 11.877C4.30664 11.0475 5.15885 10.4141 6.15234 9.97656C7.15495 9.53906 8.2806 9.32031 9.5293 9.32031C11.1152 9.32031 12.4551 9.61198 13.5488 10.1953C14.6426 10.7786 15.4902 11.5853 16.0918 12.6152C16.7025 13.6452 17.0762 14.8255 17.2129 16.1562H13.7949C13.7038 15.2995 13.5033 14.5658 13.1934 13.9551C12.8926 13.3444 12.446 12.8796 11.8535 12.5605C11.2611 12.2324 10.4863 12.0684 9.5293 12.0684C8.74544 12.0684 8.06185 12.2142 7.47852 12.5059C6.89518 12.7975 6.40755 13.2259 6.01562 13.791C5.6237 14.3561 5.32747 15.0534 5.12695 15.8828C4.93555 16.7031 4.83984 17.6419 4.83984 18.6992V20.3809C4.83984 21.3835 4.92643 22.2949 5.09961 23.1152C5.2819 23.9264 5.55534 24.6237 5.91992 25.207C6.29362 25.7904 6.76758 26.2415 7.3418 26.5605C7.91602 26.8796 8.60417 27.0391 9.40625 27.0391C10.3815 27.0391 11.1699 26.8841 11.7715 26.5742C12.3822 26.2643 12.8424 25.8132 13.1523 25.2207C13.4714 24.6191 13.681 23.8854 13.7812 23.0195Z" fill="white"/>
<path d="M19.8086 24.8506V24.6484C19.8086 23.9629 19.9082 23.3271 20.1074 22.7412C20.3066 22.1494 20.5938 21.6367 20.9688 21.2031C21.3438 20.7637 21.7979 20.4238 22.3311 20.1836C22.8643 19.9375 23.4619 19.8145 24.124 19.8145C24.792 19.8145 25.3926 19.9375 25.9258 20.1836C26.4648 20.4238 26.9219 20.7637 27.2969 21.2031C27.6777 21.6367 27.9678 22.1494 28.167 22.7412C28.3662 23.3271 28.4658 23.9629 28.4658 24.6484V24.8506C28.4658 25.5361 28.3662 26.1719 28.167 26.7578C27.9678 27.3438 27.6777 27.8564 27.2969 28.2959C26.9219 28.7295 26.4678 29.0693 25.9346 29.3154C25.4072 29.5557 24.8096 29.6758 24.1416 29.6758C23.4736 29.6758 22.873 29.5557 22.3398 29.3154C21.8066 29.0693 21.3496 28.7295 20.9688 28.2959C20.5938 27.8564 20.3066 27.3438 20.1074 26.7578C19.9082 26.1719 19.8086 25.5361 19.8086 24.8506ZM21.4346 24.6484V24.8506C21.4346 25.3252 21.4902 25.7734 21.6016 26.1953C21.7129 26.6113 21.8799 26.9805 22.1025 27.3027C22.3311 27.625 22.6152 27.8799 22.9551 28.0674C23.2949 28.249 23.6904 28.3398 24.1416 28.3398C24.5869 28.3398 24.9766 28.249 25.3105 28.0674C25.6504 27.8799 25.9316 27.625 26.1543 27.3027C26.377 26.9805 26.5439 26.6113 26.6553 26.1953C26.7725 25.7734 26.8311 25.3252 26.8311 24.8506V24.6484C26.8311 24.1797 26.7725 23.7373 26.6553 23.3213C26.5439 22.8994 26.374 22.5273 26.1455 22.2051C25.9229 21.877 25.6416 21.6191 25.3018 21.4316C24.9678 21.2441 24.5752 21.1504 24.124 21.1504C23.6787 21.1504 23.2861 21.2441 22.9463 21.4316C22.6123 21.6191 22.3311 21.877 22.1025 22.2051C21.8799 22.5273 21.7129 22.8994 21.6016 23.3213C21.4902 23.7373 21.4346 24.1797 21.4346 24.6484ZM32.2715 19.9902V29.5H30.6367V19.9902H32.2715ZM30.5137 17.4678C30.5137 17.2041 30.5928 16.9814 30.751 16.7998C30.915 16.6182 31.1553 16.5273 31.4717 16.5273C31.7822 16.5273 32.0195 16.6182 32.1836 16.7998C32.3535 16.9814 32.4385 17.2041 32.4385 17.4678C32.4385 17.7197 32.3535 17.9365 32.1836 18.1182C32.0195 18.2939 31.7822 18.3818 31.4717 18.3818C31.1553 18.3818 30.915 18.2939 30.751 18.1182C30.5928 17.9365 30.5137 17.7197 30.5137 17.4678ZM36.5078 22.0205V29.5H34.8818V19.9902H36.4199L36.5078 22.0205ZM36.1211 24.3848L35.4443 24.3584C35.4502 23.708 35.5469 23.1074 35.7344 22.5566C35.9219 22 36.1855 21.5166 36.5254 21.1064C36.8652 20.6963 37.2695 20.3799 37.7383 20.1572C38.2129 19.9287 38.7373 19.8145 39.3115 19.8145C39.7803 19.8145 40.2021 19.8789 40.5771 20.0078C40.9521 20.1309 41.2715 20.3301 41.5352 20.6055C41.8047 20.8809 42.0098 21.2383 42.1504 21.6777C42.291 22.1113 42.3613 22.6416 42.3613 23.2686V29.5H40.7266V23.251C40.7266 22.7529 40.6533 22.3545 40.5068 22.0557C40.3604 21.751 40.1465 21.5312 39.8652 21.3965C39.584 21.2559 39.2383 21.1855 38.8281 21.1855C38.4238 21.1855 38.0547 21.2705 37.7207 21.4404C37.3926 21.6104 37.1084 21.8447 36.8682 22.1436C36.6338 22.4424 36.4492 22.7852 36.3145 23.1719C36.1855 23.5527 36.1211 23.957 36.1211 24.3848Z" fill="white"/>
</svg>
