<svg width="32" height="32" viewBox="0 0 32 32" fill="none" xmlns="http://www.w3.org/2000/svg">
<g clip-path="url(#clip0_2708_4763)">
<g clip-path="url(#clip1_2708_4763)">
<path d="M14.0362 18.4442H12.6811V17.0889C12.6811 16.5711 12.2613 16.1513 11.7435 16.1513C11.2257 16.1513 10.8059 16.5711 10.8059 17.0889V18.4442H9.45077C8.93297 18.4442 8.51318 18.8639 8.51318 19.3817V23.9669C8.51318 24.4847 8.93297 24.9045 9.45077 24.9045H10.8059V26.3362C10.8059 26.854 11.2257 27.2737 11.7435 27.2737C12.2613 27.2737 12.6811 26.854 12.6811 26.3362V24.9045H14.0362C14.554 24.9045 14.9737 24.4847 14.9737 23.9669V19.3817C14.9737 18.8639 14.554 18.4442 14.0362 18.4442Z" fill="#FFBE3D"/>
<path d="M22.5493 13.8586H21.1943V12.5034C21.1943 11.9856 20.7745 11.5658 20.2567 11.5658C19.7389 11.5658 19.3191 11.9856 19.3191 12.5034V13.8586H17.964C17.4462 13.8586 17.0264 14.2784 17.0264 14.7962V19.3813C17.0264 19.8991 17.4462 20.3189 17.964 20.3189H19.3191V26.3363C19.3191 26.8541 19.7389 27.2738 20.2567 27.2738C20.7745 27.2738 21.1943 26.8541 21.1943 26.3363V20.3189H22.5493C23.0671 20.3189 23.4869 19.8991 23.4869 19.3813V14.7962C23.4869 14.2784 23.0671 13.8586 22.5493 13.8586Z" fill="#FFBE3D"/>
<path d="M31.0625 7.01817H29.7074V5.66292C29.7074 5.14512 29.2876 4.72533 28.7698 4.72533C28.252 4.72533 27.8322 5.14512 27.8322 5.66292V7.01811H26.4771C25.9593 7.01811 25.5396 7.4379 25.5396 7.9557V14.7957C25.5396 15.3135 25.9593 15.7333 26.4771 15.7333H27.8322V19.4572C27.8322 19.975 28.252 20.3948 28.7698 20.3948C29.2876 20.3948 29.7074 19.975 29.7074 19.4572V15.7333H31.0625C31.5803 15.7333 32.0001 15.3135 32.0001 14.7957V7.95576C32.0001 7.43796 31.5803 7.01817 31.0625 7.01817Z" fill="#FFBE3D"/>
<path d="M5.5229 11.4891H4.1679V5.66292C4.1679 5.14512 3.74811 4.72533 3.23031 4.72533C2.71251 4.72533 2.29272 5.14512 2.29272 5.66292V11.4891H0.93759C0.41979 11.4891 0 11.9089 0 12.4267V19.4572C0 19.975 0.41979 20.3948 0.93759 20.3948H2.29272V21.75C2.29272 22.2678 2.71251 22.6876 3.23031 22.6876C3.74811 22.6876 4.1679 22.2678 4.1679 21.75V20.3948H5.52296C6.04076 20.3948 6.46055 19.975 6.46055 19.4572V12.4267C6.46049 11.9089 6.04076 11.4891 5.5229 11.4891Z" fill="#FFBE3D"/>
</g>
</g>
<defs>
<clipPath id="clip0_2708_4763">
<rect width="32" height="32" fill="white"/>
</clipPath>
<clipPath id="clip1_2708_4763">
<rect width="32" height="32" fill="white"/>
</clipPath>
</defs>
</svg>
