<svg width="74" height="26" viewBox="0 0 74 26" fill="none" xmlns="http://www.w3.org/2000/svg">
<path d="M1.79688 6.625H3.25781L6.98438 15.8984L10.7031 6.625H12.1719L7.54688 18H6.40625L1.79688 6.625ZM1.32031 6.625H2.60938L2.82031 13.5625V18H1.32031V6.625ZM11.3516 6.625H12.6406V18H11.1406V13.5625L11.3516 6.625ZM20.0547 16.5547V12.2031C20.0547 11.8698 19.987 11.5807 19.8516 11.3359C19.7214 11.0859 19.5234 10.8932 19.2578 10.7578C18.9922 10.6224 18.6641 10.5547 18.2734 10.5547C17.9089 10.5547 17.5885 10.6172 17.3125 10.7422C17.0417 10.8672 16.8281 11.0312 16.6719 11.2344C16.5208 11.4375 16.4453 11.6562 16.4453 11.8906H15C15 11.5885 15.0781 11.2891 15.2344 10.9922C15.3906 10.6953 15.6146 10.4271 15.9062 10.1875C16.2031 9.94271 16.5573 9.75 16.9688 9.60938C17.3854 9.46354 17.849 9.39062 18.3594 9.39062C18.974 9.39062 19.5156 9.49479 19.9844 9.70312C20.4583 9.91146 20.8281 10.2266 21.0938 10.6484C21.3646 11.0651 21.5 11.5885 21.5 12.2188V16.1562C21.5 16.4375 21.5234 16.737 21.5703 17.0547C21.6224 17.3724 21.6979 17.6458 21.7969 17.875V18H20.2891C20.2161 17.8333 20.1589 17.612 20.1172 17.3359C20.0755 17.0547 20.0547 16.7943 20.0547 16.5547ZM20.3047 12.875L20.3203 13.8906H18.8594C18.4479 13.8906 18.0807 13.9245 17.7578 13.9922C17.4349 14.0547 17.1641 14.151 16.9453 14.2812C16.7266 14.4115 16.5599 14.5755 16.4453 14.7734C16.3307 14.9661 16.2734 15.1927 16.2734 15.4531C16.2734 15.7188 16.3333 15.9609 16.4531 16.1797C16.5729 16.3984 16.7526 16.5729 16.9922 16.7031C17.237 16.8281 17.5365 16.8906 17.8906 16.8906C18.3333 16.8906 18.724 16.7969 19.0625 16.6094C19.401 16.4219 19.6693 16.1927 19.8672 15.9219C20.0703 15.651 20.1797 15.388 20.1953 15.1328L20.8125 15.8281C20.776 16.0469 20.6771 16.2891 20.5156 16.5547C20.3542 16.8203 20.138 17.0755 19.8672 17.3203C19.6016 17.5599 19.2839 17.7604 18.9141 17.9219C18.5495 18.0781 18.138 18.1562 17.6797 18.1562C17.1068 18.1562 16.6042 18.0443 16.1719 17.8203C15.7448 17.5964 15.4115 17.2969 15.1719 16.9219C14.9375 16.5417 14.8203 16.1172 14.8203 15.6484C14.8203 15.1953 14.9089 14.7969 15.0859 14.4531C15.263 14.1042 15.5182 13.8151 15.8516 13.5859C16.1849 13.3516 16.5859 13.1745 17.0547 13.0547C17.5234 12.9349 18.0469 12.875 18.625 12.875H20.3047ZM25.2188 10.875V18H23.7734V9.54688H25.1797L25.2188 10.875ZM27.8594 9.5L27.8516 10.8438C27.7318 10.8177 27.6172 10.8021 27.5078 10.7969C27.4036 10.7865 27.2839 10.7812 27.1484 10.7812C26.8151 10.7812 26.5208 10.8333 26.2656 10.9375C26.0104 11.0417 25.7943 11.1875 25.6172 11.375C25.4401 11.5625 25.2995 11.7865 25.1953 12.0469C25.0964 12.3021 25.0312 12.5833 25 12.8906L24.5938 13.125C24.5938 12.6146 24.6432 12.1354 24.7422 11.6875C24.8464 11.2396 25.0052 10.8438 25.2188 10.5C25.4323 10.151 25.7031 9.88021 26.0312 9.6875C26.3646 9.48958 26.7604 9.39062 27.2188 9.39062C27.3229 9.39062 27.4427 9.40365 27.5781 9.42969C27.7135 9.45052 27.8073 9.47396 27.8594 9.5ZM30.6484 6V18H29.1953V6H30.6484ZM35.8125 9.54688L32.125 13.4922L30.0625 15.6328L29.9453 14.0938L31.4219 12.3281L34.0469 9.54688H35.8125ZM34.4922 18L31.4766 13.9688L32.2266 12.6797L36.1953 18H34.4922ZM40.6562 18.1562C40.0677 18.1562 39.5339 18.0573 39.0547 17.8594C38.5807 17.6562 38.1719 17.3724 37.8281 17.0078C37.4896 16.6432 37.2292 16.2109 37.0469 15.7109C36.8646 15.2109 36.7734 14.6641 36.7734 14.0703V13.7422C36.7734 13.0547 36.875 12.4427 37.0781 11.9062C37.2812 11.3646 37.5573 10.9062 37.9062 10.5312C38.2552 10.1562 38.651 9.8724 39.0938 9.67969C39.5365 9.48698 39.9948 9.39062 40.4688 9.39062C41.0729 9.39062 41.5938 9.49479 42.0312 9.70312C42.474 9.91146 42.8359 10.2031 43.1172 10.5781C43.3984 10.9479 43.6068 11.3854 43.7422 11.8906C43.8776 12.3906 43.9453 12.9375 43.9453 13.5312V14.1797H37.6328V13H42.5V12.8906C42.4792 12.5156 42.401 12.151 42.2656 11.7969C42.1354 11.4427 41.9271 11.151 41.6406 10.9219C41.3542 10.6927 40.9635 10.5781 40.4688 10.5781C40.1406 10.5781 39.8385 10.6484 39.5625 10.7891C39.2865 10.9245 39.0495 11.1276 38.8516 11.3984C38.6536 11.6693 38.5 12 38.3906 12.3906C38.2812 12.7812 38.2266 13.2318 38.2266 13.7422V14.0703C38.2266 14.4714 38.2812 14.849 38.3906 15.2031C38.5052 15.5521 38.6693 15.8594 38.8828 16.125C39.1016 16.3906 39.3646 16.599 39.6719 16.75C39.9844 16.901 40.3385 16.9766 40.7344 16.9766C41.2448 16.9766 41.6771 16.8724 42.0312 16.6641C42.3854 16.4557 42.6953 16.1771 42.9609 15.8281L43.8359 16.5234C43.6536 16.7995 43.4219 17.0625 43.1406 17.3125C42.8594 17.5625 42.513 17.7656 42.1016 17.9219C41.6953 18.0781 41.2135 18.1562 40.6562 18.1562ZM49.1719 9.54688V10.6562H44.6016V9.54688H49.1719ZM46.1484 7.49219H47.5938V15.9062C47.5938 16.1927 47.638 16.4089 47.7266 16.5547C47.8151 16.7005 47.9297 16.7969 48.0703 16.8438C48.2109 16.8906 48.362 16.9141 48.5234 16.9141C48.6432 16.9141 48.7682 16.9036 48.8984 16.8828C49.0339 16.8568 49.1354 16.8359 49.2031 16.8203L49.2109 18C49.0964 18.0365 48.9453 18.0703 48.7578 18.1016C48.5755 18.138 48.3542 18.1562 48.0938 18.1562C47.7396 18.1562 47.4141 18.0859 47.1172 17.9453C46.8203 17.8047 46.5833 17.5703 46.4062 17.2422C46.2344 16.9089 46.1484 16.4609 46.1484 15.8984V7.49219Z" fill="#F0F1F5"/>
</svg>
