<svg width="68" height="26" viewBox="0 0 68 26" fill="none" xmlns="http://www.w3.org/2000/svg">
<path d="M8.75 11.5156V12.7422H2.59375V11.5156H8.75ZM2.82812 6.625V18H1.32031V6.625H2.82812ZM10.0625 6.625V18H8.5625V6.625H10.0625ZM12.1406 13.8672V13.6875C12.1406 13.0781 12.2292 12.513 12.4062 11.9922C12.5833 11.4661 12.8385 11.0104 13.1719 10.625C13.5052 10.2344 13.9089 9.93229 14.3828 9.71875C14.8568 9.5 15.388 9.39062 15.9766 9.39062C16.5703 9.39062 17.1042 9.5 17.5781 9.71875C18.0573 9.93229 18.4635 10.2344 18.7969 10.625C19.1354 11.0104 19.3932 11.4661 19.5703 11.9922C19.7474 12.513 19.8359 13.0781 19.8359 13.6875V13.8672C19.8359 14.4766 19.7474 15.0417 19.5703 15.5625C19.3932 16.0833 19.1354 16.5391 18.7969 16.9297C18.4635 17.3151 18.0599 17.6172 17.5859 17.8359C17.1172 18.0495 16.5859 18.1562 15.9922 18.1562C15.3984 18.1562 14.8646 18.0495 14.3906 17.8359C13.9167 17.6172 13.5104 17.3151 13.1719 16.9297C12.8385 16.5391 12.5833 16.0833 12.4062 15.5625C12.2292 15.0417 12.1406 14.4766 12.1406 13.8672ZM13.5859 13.6875V13.8672C13.5859 14.2891 13.6354 14.6875 13.7344 15.0625C13.8333 15.4323 13.9818 15.7604 14.1797 16.0469C14.3828 16.3333 14.6354 16.5599 14.9375 16.7266C15.2396 16.888 15.5911 16.9688 15.9922 16.9688C16.388 16.9688 16.7344 16.888 17.0312 16.7266C17.3333 16.5599 17.5833 16.3333 17.7812 16.0469C17.9792 15.7604 18.1276 15.4323 18.2266 15.0625C18.3307 14.6875 18.3828 14.2891 18.3828 13.8672V13.6875C18.3828 13.2708 18.3307 12.8776 18.2266 12.5078C18.1276 12.1328 17.9766 11.8021 17.7734 11.5156C17.5755 11.224 17.3255 10.9948 17.0234 10.8281C16.7266 10.6615 16.3776 10.5781 15.9766 10.5781C15.5807 10.5781 15.2318 10.6615 14.9297 10.8281C14.6328 10.9948 14.3828 11.224 14.1797 11.5156C13.9818 11.8021 13.8333 12.1328 13.7344 12.5078C13.6354 12.8776 13.5859 13.2708 13.5859 13.6875ZM23.0859 11.2266V18H21.6328V9.54688H23.0078L23.0859 11.2266ZM22.7891 13.4531L22.1172 13.4297C22.1224 12.8516 22.1979 12.3177 22.3438 11.8281C22.4896 11.3333 22.7057 10.9036 22.9922 10.5391C23.2786 10.1745 23.6354 9.89323 24.0625 9.69531C24.4896 9.49219 24.9844 9.39062 25.5469 9.39062C25.9427 9.39062 26.3073 9.44792 26.6406 9.5625C26.974 9.67188 27.263 9.84635 27.5078 10.0859C27.7526 10.3255 27.9427 10.6328 28.0781 11.0078C28.2135 11.3828 28.2812 11.8359 28.2812 12.3672V18H26.8359V12.4375C26.8359 11.9948 26.7604 11.6406 26.6094 11.375C26.4635 11.1094 26.2552 10.9167 25.9844 10.7969C25.7135 10.6719 25.3958 10.6094 25.0312 10.6094C24.6042 10.6094 24.2474 10.6849 23.9609 10.8359C23.6745 10.987 23.4453 11.1953 23.2734 11.4609C23.1016 11.7266 22.9766 12.0312 22.8984 12.375C22.8255 12.7135 22.7891 13.0729 22.7891 13.4531ZM28.2656 12.6562L27.2969 12.9531C27.3021 12.4896 27.3776 12.0443 27.5234 11.6172C27.6745 11.1901 27.8906 10.8099 28.1719 10.4766C28.4583 10.1432 28.8099 9.88021 29.2266 9.6875C29.6432 9.48958 30.1198 9.39062 30.6562 9.39062C31.1094 9.39062 31.5104 9.45052 31.8594 9.57031C32.2135 9.6901 32.5104 9.875 32.75 10.125C32.9948 10.3698 33.1797 10.6849 33.3047 11.0703C33.4297 11.4557 33.4922 11.9141 33.4922 12.4453V18H32.0391V12.4297C32.0391 11.9557 31.9635 11.5885 31.8125 11.3281C31.6667 11.0625 31.4583 10.8776 31.1875 10.7734C30.9219 10.6641 30.6042 10.6094 30.2344 10.6094C29.9167 10.6094 29.6354 10.6641 29.3906 10.7734C29.1458 10.8828 28.9401 11.0339 28.7734 11.2266C28.6068 11.4141 28.4792 11.6302 28.3906 11.875C28.3073 12.1198 28.2656 12.3802 28.2656 12.6562ZM39.1875 18.1562C38.599 18.1562 38.0651 18.0573 37.5859 17.8594C37.112 17.6562 36.7031 17.3724 36.3594 17.0078C36.0208 16.6432 35.7604 16.2109 35.5781 15.7109C35.3958 15.2109 35.3047 14.6641 35.3047 14.0703V13.7422C35.3047 13.0547 35.4062 12.4427 35.6094 11.9062C35.8125 11.3646 36.0885 10.9062 36.4375 10.5312C36.7865 10.1562 37.1823 9.8724 37.625 9.67969C38.0677 9.48698 38.526 9.39062 39 9.39062C39.6042 9.39062 40.125 9.49479 40.5625 9.70312C41.0052 9.91146 41.3672 10.2031 41.6484 10.5781C41.9297 10.9479 42.138 11.3854 42.2734 11.8906C42.4089 12.3906 42.4766 12.9375 42.4766 13.5312V14.1797H36.1641V13H41.0312V12.8906C41.0104 12.5156 40.9323 12.151 40.7969 11.7969C40.6667 11.4427 40.4583 11.151 40.1719 10.9219C39.8854 10.6927 39.4948 10.5781 39 10.5781C38.6719 10.5781 38.3698 10.6484 38.0938 10.7891C37.8177 10.9245 37.5807 11.1276 37.3828 11.3984C37.1849 11.6693 37.0312 12 36.9219 12.3906C36.8125 12.7812 36.7578 13.2318 36.7578 13.7422V14.0703C36.7578 14.4714 36.8125 14.849 36.9219 15.2031C37.0365 15.5521 37.2005 15.8594 37.4141 16.125C37.6328 16.3906 37.8958 16.599 38.2031 16.75C38.5156 16.901 38.8698 16.9766 39.2656 16.9766C39.776 16.9766 40.2083 16.8724 40.5625 16.6641C40.9167 16.4557 41.2266 16.1771 41.4922 15.8281L42.3672 16.5234C42.1849 16.7995 41.9531 17.0625 41.6719 17.3125C41.3906 17.5625 41.0443 17.7656 40.6328 17.9219C40.2266 18.0781 39.7448 18.1562 39.1875 18.1562Z" fill="#F0F1F5"/>
<path d="M66.7098 10.2474C66.6169 10.169 66.5063 10.1068 66.3844 10.0643C66.2625 10.0219 66.1318 10 65.9998 10C65.8678 10 65.7371 10.0219 65.6152 10.0643C65.4934 10.1068 65.3828 10.169 65.2898 10.2474L60.7098 14.0784C60.6169 14.1568 60.5063 14.219 60.3844 14.2615C60.2625 14.3039 60.1318 14.3258 59.9998 14.3258C59.8678 14.3258 59.7371 14.3039 59.6152 14.2615C59.4934 14.219 59.3828 14.1568 59.2898 14.0784L54.7098 10.2474C54.6169 10.169 54.5063 10.1068 54.3844 10.0643C54.2625 10.0219 54.1318 10 53.9998 10C53.8678 10 53.7371 10.0219 53.6152 10.0643C53.4934 10.1068 53.3828 10.169 53.2898 10.2474C53.1036 10.4041 52.999 10.6161 52.999 10.8371C52.999 11.0581 53.1036 11.2701 53.2898 11.4268L57.8798 15.2661C58.4423 15.7361 59.2048 16 59.9998 16C60.7948 16 61.5573 15.7361 62.1198 15.2661L66.7098 11.4268C66.8961 11.2701 67.0006 11.0581 67.0006 10.8371C67.0006 10.6161 66.8961 10.4041 66.7098 10.2474Z" fill="#6A718A"/>
</svg>
