<svg width="86" height="26" viewBox="0 0 86 26" fill="none" xmlns="http://www.w3.org/2000/svg">
<path d="M5.51562 13.5391H2.47656V12.3125H5.51562C6.10417 12.3125 6.58073 12.2188 6.94531 12.0312C7.3099 11.8438 7.57552 11.5833 7.74219 11.25C7.91406 10.9167 8 10.5365 8 10.1094C8 9.71875 7.91406 9.35156 7.74219 9.00781C7.57552 8.66406 7.3099 8.38802 6.94531 8.17969C6.58073 7.96615 6.10417 7.85938 5.51562 7.85938H2.82812V18H1.32031V6.625H5.51562C6.375 6.625 7.10156 6.77344 7.69531 7.07031C8.28906 7.36719 8.73958 7.77865 9.04688 8.30469C9.35417 8.82552 9.50781 9.42188 9.50781 10.0938C9.50781 10.8229 9.35417 11.4453 9.04688 11.9609C8.73958 12.4766 8.28906 12.8698 7.69531 13.1406C7.10156 13.4062 6.375 13.5391 5.51562 13.5391ZM10.7031 13.8672V13.6875C10.7031 13.0781 10.7917 12.513 10.9688 11.9922C11.1458 11.4661 11.401 11.0104 11.7344 10.625C12.0677 10.2344 12.4714 9.93229 12.9453 9.71875C13.4193 9.5 13.9505 9.39062 14.5391 9.39062C15.1328 9.39062 15.6667 9.5 16.1406 9.71875C16.6198 9.93229 17.026 10.2344 17.3594 10.625C17.6979 11.0104 17.9557 11.4661 18.1328 11.9922C18.3099 12.513 18.3984 13.0781 18.3984 13.6875V13.8672C18.3984 14.4766 18.3099 15.0417 18.1328 15.5625C17.9557 16.0833 17.6979 16.5391 17.3594 16.9297C17.026 17.3151 16.6224 17.6172 16.1484 17.8359C15.6797 18.0495 15.1484 18.1562 14.5547 18.1562C13.9609 18.1562 13.4271 18.0495 12.9531 17.8359C12.4792 17.6172 12.0729 17.3151 11.7344 16.9297C11.401 16.5391 11.1458 16.0833 10.9688 15.5625C10.7917 15.0417 10.7031 14.4766 10.7031 13.8672ZM12.1484 13.6875V13.8672C12.1484 14.2891 12.1979 14.6875 12.2969 15.0625C12.3958 15.4323 12.5443 15.7604 12.7422 16.0469C12.9453 16.3333 13.1979 16.5599 13.5 16.7266C13.8021 16.888 14.1536 16.9688 14.5547 16.9688C14.9505 16.9688 15.2969 16.888 15.5938 16.7266C15.8958 16.5599 16.1458 16.3333 16.3438 16.0469C16.5417 15.7604 16.6901 15.4323 16.7891 15.0625C16.8932 14.6875 16.9453 14.2891 16.9453 13.8672V13.6875C16.9453 13.2708 16.8932 12.8776 16.7891 12.5078C16.6901 12.1328 16.5391 11.8021 16.3359 11.5156C16.138 11.224 15.888 10.9948 15.5859 10.8281C15.2891 10.6615 14.9401 10.5781 14.5391 10.5781C14.1432 10.5781 13.7943 10.6615 13.4922 10.8281C13.1953 10.9948 12.9453 11.224 12.7422 11.5156C12.5443 11.8021 12.3958 12.1328 12.2969 12.5078C12.1979 12.8776 12.1484 13.2708 12.1484 13.6875ZM21.6562 10.875V18H20.2109V9.54688H21.6172L21.6562 10.875ZM24.2969 9.5L24.2891 10.8438C24.1693 10.8177 24.0547 10.8021 23.9453 10.7969C23.8411 10.7865 23.7214 10.7812 23.5859 10.7812C23.2526 10.7812 22.9583 10.8333 22.7031 10.9375C22.4479 11.0417 22.2318 11.1875 22.0547 11.375C21.8776 11.5625 21.737 11.7865 21.6328 12.0469C21.5339 12.3021 21.4688 12.5833 21.4375 12.8906L21.0312 13.125C21.0312 12.6146 21.0807 12.1354 21.1797 11.6875C21.2839 11.2396 21.4427 10.8438 21.6562 10.5C21.8698 10.151 22.1406 9.88021 22.4688 9.6875C22.8021 9.48958 23.1979 9.39062 23.6562 9.39062C23.7604 9.39062 23.8802 9.40365 24.0156 9.42969C24.151 9.45052 24.2448 9.47396 24.2969 9.5ZM29.5625 9.54688V10.6562H24.9922V9.54688H29.5625ZM26.5391 7.49219H27.9844V15.9062C27.9844 16.1927 28.0286 16.4089 28.1172 16.5547C28.2057 16.7005 28.3203 16.7969 28.4609 16.8438C28.6016 16.8906 28.7526 16.9141 28.9141 16.9141C29.0339 16.9141 29.1589 16.9036 29.2891 16.8828C29.4245 16.8568 29.526 16.8359 29.5938 16.8203L29.6016 18C29.487 18.0365 29.3359 18.0703 29.1484 18.1016C28.9661 18.138 28.7448 18.1562 28.4844 18.1562C28.1302 18.1562 27.8047 18.0859 27.5078 17.9453C27.2109 17.8047 26.974 17.5703 26.7969 17.2422C26.625 16.9089 26.5391 16.4609 26.5391 15.8984V7.49219ZM33.4141 18H31.9688V8.65625C31.9688 8.04688 32.0781 7.53385 32.2969 7.11719C32.5208 6.69531 32.8411 6.3776 33.2578 6.16406C33.6745 5.94531 34.1693 5.83594 34.7422 5.83594C34.9089 5.83594 35.0755 5.84635 35.2422 5.86719C35.4141 5.88802 35.5807 5.91927 35.7422 5.96094L35.6641 7.14062C35.5547 7.11458 35.4297 7.09635 35.2891 7.08594C35.1536 7.07552 35.0182 7.07031 34.8828 7.07031C34.5755 7.07031 34.3099 7.13281 34.0859 7.25781C33.8672 7.3776 33.7005 7.55469 33.5859 7.78906C33.4714 8.02344 33.4141 8.3125 33.4141 8.65625V18ZM35.2109 9.54688V10.6562H30.6328V9.54688H35.2109ZM36.4375 13.8672V13.6875C36.4375 13.0781 36.526 12.513 36.7031 11.9922C36.8802 11.4661 37.1354 11.0104 37.4688 10.625C37.8021 10.2344 38.2057 9.93229 38.6797 9.71875C39.1536 9.5 39.6849 9.39062 40.2734 9.39062C40.8672 9.39062 41.401 9.5 41.875 9.71875C42.3542 9.93229 42.7604 10.2344 43.0938 10.625C43.4323 11.0104 43.6901 11.4661 43.8672 11.9922C44.0443 12.513 44.1328 13.0781 44.1328 13.6875V13.8672C44.1328 14.4766 44.0443 15.0417 43.8672 15.5625C43.6901 16.0833 43.4323 16.5391 43.0938 16.9297C42.7604 17.3151 42.3568 17.6172 41.8828 17.8359C41.4141 18.0495 40.8828 18.1562 40.2891 18.1562C39.6953 18.1562 39.1615 18.0495 38.6875 17.8359C38.2135 17.6172 37.8073 17.3151 37.4688 16.9297C37.1354 16.5391 36.8802 16.0833 36.7031 15.5625C36.526 15.0417 36.4375 14.4766 36.4375 13.8672ZM37.8828 13.6875V13.8672C37.8828 14.2891 37.9323 14.6875 38.0312 15.0625C38.1302 15.4323 38.2786 15.7604 38.4766 16.0469C38.6797 16.3333 38.9323 16.5599 39.2344 16.7266C39.5365 16.888 39.888 16.9688 40.2891 16.9688C40.6849 16.9688 41.0312 16.888 41.3281 16.7266C41.6302 16.5599 41.8802 16.3333 42.0781 16.0469C42.276 15.7604 42.4245 15.4323 42.5234 15.0625C42.6276 14.6875 42.6797 14.2891 42.6797 13.8672V13.6875C42.6797 13.2708 42.6276 12.8776 42.5234 12.5078C42.4245 12.1328 42.2734 11.8021 42.0703 11.5156C41.8724 11.224 41.6224 10.9948 41.3203 10.8281C41.0234 10.6615 40.6745 10.5781 40.2734 10.5781C39.8776 10.5781 39.5286 10.6615 39.2266 10.8281C38.9297 10.9948 38.6797 11.224 38.4766 11.5156C38.2786 11.8021 38.1302 12.1328 38.0312 12.5078C37.9323 12.8776 37.8828 13.2708 37.8828 13.6875ZM47.5156 6V18H46.0625V6H47.5156ZM51.4062 9.54688V18H49.9531V9.54688H51.4062ZM49.8438 7.30469C49.8438 7.07031 49.9141 6.8724 50.0547 6.71094C50.2005 6.54948 50.4141 6.46875 50.6953 6.46875C50.9714 6.46875 51.1823 6.54948 51.3281 6.71094C51.4792 6.8724 51.5547 7.07031 51.5547 7.30469C51.5547 7.52865 51.4792 7.72135 51.3281 7.88281C51.1823 8.03906 50.9714 8.11719 50.6953 8.11719C50.4141 8.11719 50.2005 8.03906 50.0547 7.88281C49.9141 7.72135 49.8438 7.52865 49.8438 7.30469ZM53.3438 13.8672V13.6875C53.3438 13.0781 53.4323 12.513 53.6094 11.9922C53.7865 11.4661 54.0417 11.0104 54.375 10.625C54.7083 10.2344 55.112 9.93229 55.5859 9.71875C56.0599 9.5 56.5911 9.39062 57.1797 9.39062C57.7734 9.39062 58.3073 9.5 58.7812 9.71875C59.2604 9.93229 59.6667 10.2344 60 10.625C60.3385 11.0104 60.5964 11.4661 60.7734 11.9922C60.9505 12.513 61.0391 13.0781 61.0391 13.6875V13.8672C61.0391 14.4766 60.9505 15.0417 60.7734 15.5625C60.5964 16.0833 60.3385 16.5391 60 16.9297C59.6667 17.3151 59.263 17.6172 58.7891 17.8359C58.3203 18.0495 57.7891 18.1562 57.1953 18.1562C56.6016 18.1562 56.0677 18.0495 55.5938 17.8359C55.1198 17.6172 54.7135 17.3151 54.375 16.9297C54.0417 16.5391 53.7865 16.0833 53.6094 15.5625C53.4323 15.0417 53.3438 14.4766 53.3438 13.8672ZM54.7891 13.6875V13.8672C54.7891 14.2891 54.8385 14.6875 54.9375 15.0625C55.0365 15.4323 55.1849 15.7604 55.3828 16.0469C55.5859 16.3333 55.8385 16.5599 56.1406 16.7266C56.4427 16.888 56.7943 16.9688 57.1953 16.9688C57.5911 16.9688 57.9375 16.888 58.2344 16.7266C58.5365 16.5599 58.7865 16.3333 58.9844 16.0469C59.1823 15.7604 59.3307 15.4323 59.4297 15.0625C59.5339 14.6875 59.5859 14.2891 59.5859 13.8672V13.6875C59.5859 13.2708 59.5339 12.8776 59.4297 12.5078C59.3307 12.1328 59.1797 11.8021 58.9766 11.5156C58.7786 11.224 58.5286 10.9948 58.2266 10.8281C57.9297 10.6615 57.5807 10.5781 57.1797 10.5781C56.7839 10.5781 56.4349 10.6615 56.1328 10.8281C55.8359 10.9948 55.5859 11.224 55.3828 11.5156C55.1849 11.8021 55.0365 12.1328 54.9375 12.5078C54.8385 12.8776 54.7891 13.2708 54.7891 13.6875Z" fill="#F0F1F5"/>
</svg>
