<svg width="91" height="26" viewBox="0 0 91 26" fill="none" xmlns="http://www.w3.org/2000/svg">
<path d="M4.3125 14.5625L6.57031 6.625H7.66406L7.03125 9.71094L4.60156 18H3.51562L4.3125 14.5625ZM1.97656 6.625L3.77344 14.4062L4.3125 18H3.23438L0.476562 6.625H1.97656ZM10.5859 14.3984L12.3438 6.625H13.8516L11.1016 18H10.0234L10.5859 14.3984ZM7.82812 6.625L10.0234 14.5625L10.8203 18H9.73438L7.39062 9.71094L6.75 6.625H7.82812ZM20.0234 16.5547V12.2031C20.0234 11.8698 19.9557 11.5807 19.8203 11.3359C19.6901 11.0859 19.4922 10.8932 19.2266 10.7578C18.9609 10.6224 18.6328 10.5547 18.2422 10.5547C17.8776 10.5547 17.5573 10.6172 17.2812 10.7422C17.0104 10.8672 16.7969 11.0312 16.6406 11.2344C16.4896 11.4375 16.4141 11.6562 16.4141 11.8906H14.9688C14.9688 11.5885 15.0469 11.2891 15.2031 10.9922C15.3594 10.6953 15.5833 10.4271 15.875 10.1875C16.1719 9.94271 16.526 9.75 16.9375 9.60938C17.3542 9.46354 17.8177 9.39062 18.3281 9.39062C18.9427 9.39062 19.4844 9.49479 19.9531 9.70312C20.4271 9.91146 20.7969 10.2266 21.0625 10.6484C21.3333 11.0651 21.4688 11.5885 21.4688 12.2188V16.1562C21.4688 16.4375 21.4922 16.737 21.5391 17.0547C21.5911 17.3724 21.6667 17.6458 21.7656 17.875V18H20.2578C20.1849 17.8333 20.1276 17.612 20.0859 17.3359C20.0443 17.0547 20.0234 16.7943 20.0234 16.5547ZM20.2734 12.875L20.2891 13.8906H18.8281C18.4167 13.8906 18.0495 13.9245 17.7266 13.9922C17.4036 14.0547 17.1328 14.151 16.9141 14.2812C16.6953 14.4115 16.5286 14.5755 16.4141 14.7734C16.2995 14.9661 16.2422 15.1927 16.2422 15.4531C16.2422 15.7188 16.3021 15.9609 16.4219 16.1797C16.5417 16.3984 16.7214 16.5729 16.9609 16.7031C17.2057 16.8281 17.5052 16.8906 17.8594 16.8906C18.3021 16.8906 18.6927 16.7969 19.0312 16.6094C19.3698 16.4219 19.638 16.1927 19.8359 15.9219C20.0391 15.651 20.1484 15.388 20.1641 15.1328L20.7812 15.8281C20.7448 16.0469 20.6458 16.2891 20.4844 16.5547C20.3229 16.8203 20.1068 17.0755 19.8359 17.3203C19.5703 17.5599 19.2526 17.7604 18.8828 17.9219C18.5182 18.0781 18.1068 18.1562 17.6484 18.1562C17.0755 18.1562 16.5729 18.0443 16.1406 17.8203C15.7135 17.5964 15.3802 17.2969 15.1406 16.9219C14.9062 16.5417 14.7891 16.1172 14.7891 15.6484C14.7891 15.1953 14.8776 14.7969 15.0547 14.4531C15.2318 14.1042 15.487 13.8151 15.8203 13.5859C16.1536 13.3516 16.5547 13.1745 17.0234 13.0547C17.4922 12.9349 18.0156 12.875 18.5938 12.875H20.2734ZM27.2812 9.54688V10.6562H22.7109V9.54688H27.2812ZM24.2578 7.49219H25.7031V15.9062C25.7031 16.1927 25.7474 16.4089 25.8359 16.5547C25.9245 16.7005 26.0391 16.7969 26.1797 16.8438C26.3203 16.8906 26.4714 16.9141 26.6328 16.9141C26.7526 16.9141 26.8776 16.9036 27.0078 16.8828C27.1432 16.8568 27.2448 16.8359 27.3125 16.8203L27.3203 18C27.2057 18.0365 27.0547 18.0703 26.8672 18.1016C26.6849 18.138 26.4635 18.1562 26.2031 18.1562C25.849 18.1562 25.5234 18.0859 25.2266 17.9453C24.9297 17.8047 24.6927 17.5703 24.5156 17.2422C24.3438 16.9089 24.2578 16.4609 24.2578 15.8984V7.49219ZM32.3594 16.9688C32.7031 16.9688 33.0208 16.8984 33.3125 16.7578C33.6042 16.6172 33.8438 16.4245 34.0312 16.1797C34.2188 15.9297 34.3255 15.6458 34.3516 15.3281H35.7266C35.7005 15.8281 35.5312 16.2943 35.2188 16.7266C34.9115 17.1536 34.5078 17.5 34.0078 17.7656C33.5078 18.026 32.9583 18.1562 32.3594 18.1562C31.724 18.1562 31.1693 18.0443 30.6953 17.8203C30.2266 17.5964 29.8359 17.2891 29.5234 16.8984C29.2161 16.5078 28.9844 16.0599 28.8281 15.5547C28.6771 15.0443 28.6016 14.5052 28.6016 13.9375V13.6094C28.6016 13.0417 28.6771 12.5052 28.8281 12C28.9844 11.4896 29.2161 11.0391 29.5234 10.6484C29.8359 10.2578 30.2266 9.95052 30.6953 9.72656C31.1693 9.5026 31.724 9.39062 32.3594 9.39062C33.0208 9.39062 33.599 9.52604 34.0938 9.79688C34.5885 10.0625 34.9766 10.4271 35.2578 10.8906C35.5443 11.349 35.7005 11.8698 35.7266 12.4531H34.3516C34.3255 12.1042 34.2266 11.7891 34.0547 11.5078C33.888 11.2266 33.6589 11.0026 33.3672 10.8359C33.0807 10.6641 32.7448 10.5781 32.3594 10.5781C31.9167 10.5781 31.5443 10.6667 31.2422 10.8438C30.9453 11.0156 30.7083 11.25 30.5312 11.5469C30.3594 11.8385 30.2344 12.1641 30.1562 12.5234C30.0833 12.8776 30.0469 13.2396 30.0469 13.6094V13.9375C30.0469 14.3073 30.0833 14.6719 30.1562 15.0312C30.2292 15.3906 30.3516 15.7161 30.5234 16.0078C30.7005 16.2995 30.9375 16.5339 31.2344 16.7109C31.5365 16.8828 31.9115 16.9688 32.3594 16.9688ZM38.7969 6V18H37.3516V6H38.7969ZM38.4531 13.4531L37.8516 13.4297C37.8568 12.8516 37.9427 12.3177 38.1094 11.8281C38.276 11.3333 38.5104 10.9036 38.8125 10.5391C39.1146 10.1745 39.474 9.89323 39.8906 9.69531C40.3125 9.49219 40.7786 9.39062 41.2891 9.39062C41.7057 9.39062 42.0807 9.44792 42.4141 9.5625C42.7474 9.67188 43.0312 9.84896 43.2656 10.0938C43.5052 10.3385 43.6875 10.6562 43.8125 11.0469C43.9375 11.4323 44 11.9036 44 12.4609V18H42.5469V12.4453C42.5469 12.0026 42.4818 11.6484 42.3516 11.3828C42.2214 11.112 42.0312 10.9167 41.7812 10.7969C41.5312 10.6719 41.224 10.6094 40.8594 10.6094C40.5 10.6094 40.1719 10.6849 39.875 10.8359C39.5833 10.987 39.3307 11.1953 39.1172 11.4609C38.9089 11.7266 38.7448 12.0312 38.625 12.375C38.5104 12.7135 38.4531 13.0729 38.4531 13.4531ZM47.7344 6V18H46.2812V6H47.7344ZM51.625 9.54688V18H50.1719V9.54688H51.625ZM50.0625 7.30469C50.0625 7.07031 50.1328 6.8724 50.2734 6.71094C50.4193 6.54948 50.6328 6.46875 50.9141 6.46875C51.1901 6.46875 51.401 6.54948 51.5469 6.71094C51.6979 6.8724 51.7734 7.07031 51.7734 7.30469C51.7734 7.52865 51.6979 7.72135 51.5469 7.88281C51.401 8.03906 51.1901 8.11719 50.9141 8.11719C50.6328 8.11719 50.4193 8.03906 50.2734 7.88281C50.1328 7.72135 50.0625 7.52865 50.0625 7.30469ZM58.8672 15.7578C58.8672 15.5495 58.8203 15.3568 58.7266 15.1797C58.638 14.9974 58.4531 14.8333 58.1719 14.6875C57.8958 14.5365 57.4792 14.4062 56.9219 14.2969C56.4531 14.1979 56.0286 14.0807 55.6484 13.9453C55.2734 13.8099 54.9531 13.6458 54.6875 13.4531C54.4271 13.2604 54.2266 13.0339 54.0859 12.7734C53.9453 12.513 53.875 12.2083 53.875 11.8594C53.875 11.526 53.9479 11.2109 54.0938 10.9141C54.2448 10.6172 54.4557 10.3542 54.7266 10.125C55.0026 9.89583 55.3333 9.71615 55.7188 9.58594C56.1042 9.45573 56.5339 9.39062 57.0078 9.39062C57.6849 9.39062 58.263 9.51042 58.7422 9.75C59.2214 9.98958 59.5885 10.3099 59.8438 10.7109C60.099 11.1068 60.2266 11.5469 60.2266 12.0312H58.7812C58.7812 11.7969 58.7109 11.5703 58.5703 11.3516C58.4349 11.1276 58.2344 10.9427 57.9688 10.7969C57.7083 10.651 57.388 10.5781 57.0078 10.5781C56.6068 10.5781 56.2812 10.6406 56.0312 10.7656C55.7865 10.8854 55.6068 11.0391 55.4922 11.2266C55.3828 11.4141 55.3281 11.612 55.3281 11.8203C55.3281 11.9766 55.3542 12.1172 55.4062 12.2422C55.4635 12.362 55.5625 12.474 55.7031 12.5781C55.8438 12.6771 56.0417 12.7708 56.2969 12.8594C56.5521 12.9479 56.8776 13.0365 57.2734 13.125C57.9661 13.2812 58.5365 13.4688 58.9844 13.6875C59.4323 13.9062 59.7656 14.1745 59.9844 14.4922C60.2031 14.8099 60.3125 15.1953 60.3125 15.6484C60.3125 16.0182 60.2344 16.3568 60.0781 16.6641C59.9271 16.9714 59.7057 17.237 59.4141 17.4609C59.1276 17.6797 58.7839 17.8516 58.3828 17.9766C57.987 18.0964 57.5417 18.1562 57.0469 18.1562C56.3021 18.1562 55.6719 18.0234 55.1562 17.7578C54.6406 17.4922 54.25 17.1484 53.9844 16.7266C53.7188 16.3047 53.5859 15.8594 53.5859 15.3906H55.0391C55.0599 15.7865 55.1745 16.1016 55.3828 16.3359C55.5911 16.5651 55.8464 16.7292 56.1484 16.8281C56.4505 16.9219 56.75 16.9688 57.0469 16.9688C57.4427 16.9688 57.7734 16.9167 58.0391 16.8125C58.3099 16.7083 58.5156 16.5651 58.6562 16.3828C58.7969 16.2005 58.8672 15.9922 58.8672 15.7578ZM65.75 9.54688V10.6562H61.1797V9.54688H65.75ZM62.7266 7.49219H64.1719V15.9062C64.1719 16.1927 64.2161 16.4089 64.3047 16.5547C64.3932 16.7005 64.5078 16.7969 64.6484 16.8438C64.7891 16.8906 64.9401 16.9141 65.1016 16.9141C65.2214 16.9141 65.3464 16.9036 65.4766 16.8828C65.612 16.8568 65.7135 16.8359 65.7812 16.8203L65.7891 18C65.6745 18.0365 65.5234 18.0703 65.3359 18.1016C65.1536 18.138 64.9323 18.1562 64.6719 18.1562C64.3177 18.1562 63.9922 18.0859 63.6953 17.9453C63.3984 17.8047 63.1615 17.5703 62.9844 17.2422C62.8125 16.9089 62.7266 16.4609 62.7266 15.8984V7.49219Z" fill="#F0F1F5"/>
</svg>
