<svg width="32" height="32" viewBox="0 0 32 32" fill="none" xmlns="http://www.w3.org/2000/svg">
<path d="M8.63527 9.99612C9.04091 0.226714 22.9602 0.227624 23.3653 9.99612C23.3653 11.9494 22.5893 13.8228 21.2081 15.204C19.8269 16.5852 17.9536 17.3611 16.0003 17.3611C14.047 17.3611 12.1736 16.5852 10.7924 15.204C9.41122 13.8228 8.63527 11.9494 8.63527 9.99612ZM29.2153 21.6861C27.2691 19.332 24.6673 17.6091 21.7403 16.7361C20.1514 18.1096 18.1205 18.8641 16.0203 18.8611H15.9953C13.89 18.8668 11.8535 18.1122 10.2603 16.7361C7.33321 17.6091 4.73148 19.332 2.78527 21.6861C2.23246 22.3786 1.88628 23.2129 1.78653 24.0933C1.68677 24.9737 1.8375 25.8644 2.22137 26.663C2.60524 27.4616 3.20668 28.1356 3.95654 28.6076C4.7064 29.0796 5.57423 29.3304 6.46027 29.3311H25.5403C26.4263 29.3304 27.2941 29.0796 28.044 28.6076C28.7939 28.1356 29.3953 27.4616 29.7792 26.663C30.163 25.8644 30.3138 24.9737 30.214 24.0933C30.1143 23.2129 29.7681 22.3786 29.2153 21.6861Z" fill="#25A1FF"/>
</svg>
