<svg width="32" height="32" viewBox="0 0 32 32" fill="none" xmlns="http://www.w3.org/2000/svg">
<g clip-path="url(#clip0_2708_3390)">
<g clip-path="url(#clip1_2708_3390)">
<path d="M30.5321 29.0839H1.45427C0.65088 29.0839 0 29.7348 0 30.5388C0 31.3415 0.65088 31.9924 1.45427 31.9924H30.5314C31.3348 31.9924 31.9857 31.3415 31.9857 30.5388C31.985 29.7348 31.3341 29.0839 30.5321 29.0839Z" fill="#B391FF"/>
<path d="M3.26994 25.3034C2.46655 25.3034 1.81567 25.9543 1.81567 26.7577C1.81567 27.561 2.46655 28.2126 3.26994 28.2126H28.7128C29.5162 28.2126 30.1671 27.561 30.1671 26.7577C30.1671 25.9543 29.5162 25.3034 28.7128 25.3034H28.3499V12.2177H28.7128C29.1152 12.2177 29.4393 11.8923 29.4393 11.4913C29.4393 11.0902 29.1138 10.7648 28.7128 10.7648H3.26994C2.86825 10.7648 2.54349 11.0902 2.54349 11.4913C2.54349 11.8923 2.86893 12.2177 3.26994 12.2177H3.63351V25.3027H3.26994V25.3034ZM25.4414 12.2177V25.3027H21.0799V12.2177H25.4414ZM18.1714 12.2177V25.3027H13.81V12.2177H18.1714ZM6.54068 12.2177H10.9021V25.3027H6.54068V12.2177Z" fill="#B391FF"/>
<path d="M1.45429 9.45789H30.5315C30.5362 9.45789 30.5417 9.45789 30.5458 9.45789C31.3498 9.45789 32 8.80701 32 8.00363C32 7.365 31.5888 6.82374 31.0176 6.62766L16.5907 0.13588C16.2114 -0.0343288 15.7777 -0.0343288 15.3978 0.13588L0.857882 6.67804C0.232193 6.9599 -0.11163 7.63938 0.0327078 8.30932C0.176364 8.97927 0.768692 9.45789 1.45429 9.45789Z" fill="#B391FF"/>
</g>
</g>
<defs>
<clipPath id="clip0_2708_3390">
<rect width="32" height="32" fill="white"/>
</clipPath>
<clipPath id="clip1_2708_3390">
<rect width="32" height="32" fill="white"/>
</clipPath>
</defs>
</svg>
