<svg width="32" height="32" viewBox="0 0 32 32" fill="none" xmlns="http://www.w3.org/2000/svg">
<g clip-path="url(#clip0_2708_4716)">
<g clip-path="url(#clip1_2708_4716)">
<path d="M13.0635 4.85906C13.0635 3.13594 14.4654 1.73406 16.1885 1.73406H17.27L16.9438 0.827187C16.7603 0.317187 16.2797 0 15.7675 0C15.6255 0 15.4811 0.024375 15.34 0.07575L4.4117 4.05331C3.76201 4.28981 3.42764 5.00875 3.66551 5.65794L4.24295 7.23406H13.0635V4.85906Z" fill="#FF5668"/>
<path d="M16.1875 3.60855C15.4971 3.60855 14.9375 4.16818 14.9375 4.85855V7.23355H25.875V4.85855C25.875 4.16818 25.3154 3.60855 24.625 3.60855H16.1875Z" fill="#FF5668"/>
<path d="M29.1875 25.2648H24.8125C22.2278 25.2648 20.125 23.162 20.125 20.5773C20.125 17.9926 22.2278 15.8898 24.8125 15.8898H29.1875V11.6086C29.1875 10.2279 28.0682 9.10855 26.6875 9.10855H2.5C1.11931 9.10855 0 10.2279 0 11.6086V29.4995C0 30.8802 1.11931 31.9995 2.5 31.9995H26.6875C28.0682 31.9995 29.1875 30.8802 29.1875 29.4995V25.2648Z" fill="#FF5668"/>
<path d="M31.0625 17.7648H24.8125C23.2617 17.7648 22 19.0265 22 20.5773C22 22.1281 23.2617 23.3898 24.8125 23.3898H31.0625C31.5794 23.3898 32 22.9692 32 22.4523V18.7023C32 18.1854 31.5794 17.7648 31.0625 17.7648ZM24.8125 21.5148C24.2947 21.5148 23.875 21.0951 23.875 20.5773C23.875 20.0596 24.2947 19.6398 24.8125 19.6398C25.3303 19.6398 25.75 20.0596 25.75 20.5773C25.75 21.0951 25.3303 21.5148 24.8125 21.5148Z" fill="#FF5668"/>
</g>
</g>
<defs>
<clipPath id="clip0_2708_4716">
<rect width="32" height="32" fill="white"/>
</clipPath>
<clipPath id="clip1_2708_4716">
<rect width="32" height="32" fill="white"/>
</clipPath>
</defs>
</svg>
