<svg width="33" height="10" viewBox="0 0 33 10" fill="none" xmlns="http://www.w3.org/2000/svg">
<path d="M6.95215 2.48047L6.6377 3.56055H0.293945L0.608398 2.48047H6.95215ZM4.1084 10L0.492188 5.77539L0.485352 4.92773H2.15332C2.63639 4.92773 3.03516 4.84798 3.34961 4.68848C3.66862 4.52441 3.90788 4.30339 4.06738 4.02539C4.22689 3.7474 4.30664 3.43522 4.30664 3.08887C4.30664 2.7015 4.23145 2.36198 4.08105 2.07031C3.93066 1.77409 3.69368 1.54395 3.37012 1.37988C3.05111 1.21126 2.63184 1.12695 2.1123 1.12695H0.307617L0.628906 0.046875H2.1123C2.90527 0.046875 3.55924 0.167643 4.07422 0.40918C4.59375 0.646159 4.98112 0.992513 5.23633 1.44824C5.49154 1.90397 5.61914 2.4554 5.61914 3.10254C5.61914 3.65853 5.51204 4.15755 5.29785 4.59961C5.08822 5.03711 4.73958 5.38118 4.25195 5.63184C3.76888 5.88249 3.11719 6.00781 2.29688 6.00781L5.66016 9.91797V10H4.1084ZM6.95215 0.046875L6.6377 1.12695H1.52441L1.83887 0.046875H6.95215ZM13.2891 0.046875V10H11.9697V0.046875H13.2891ZM23.3447 0.046875V10H22.0186L17.0078 2.32324V10H15.6885V0.046875H17.0078L22.0391 7.74414V0.046875H23.3447ZM25.6826 0.046875H28.9775C29.7249 0.046875 30.3561 0.160807 30.8711 0.388672C31.3906 0.616536 31.7848 0.953776 32.0537 1.40039C32.3271 1.84245 32.4639 2.38704 32.4639 3.03418C32.4639 3.48991 32.3704 3.9069 32.1836 4.28516C32.0013 4.65885 31.737 4.97786 31.3906 5.24219C31.0488 5.50195 30.6387 5.69564 30.1602 5.82324L29.791 5.9668H26.6943L26.6807 4.89355H29.0186C29.4925 4.89355 29.8867 4.81152 30.2012 4.64746C30.5156 4.47884 30.7526 4.25326 30.9121 3.9707C31.0716 3.68815 31.1514 3.37598 31.1514 3.03418C31.1514 2.65137 31.0762 2.31641 30.9258 2.0293C30.7754 1.74219 30.5384 1.52116 30.2148 1.36621C29.8958 1.20671 29.4834 1.12695 28.9775 1.12695H27.002V10H25.6826V0.046875ZM31.5 10L29.0801 5.48828L30.4541 5.48145L32.9082 9.91797V10H31.5Z" fill="#E9EAF0"/>
</svg>
